<svg xmlns="http://www.w3.org/2000/svg" xmlns:xlink="http://www.w3.org/1999/xlink" width="318.06" height="155.935" viewBox="0 0 318.06 155.935">
  <defs>
    <clipPath id="clip-path">
      <path id="Clip_70" data-name="Clip 70" d="M0,0H94.115V56.454H0Z" transform="translate(0.085 0.091)" fill="none"/>
    </clipPath>
    <clipPath id="clip-path-2">
      <path id="Clip_81" data-name="Clip 81" d="M0,0H61.249V56.454H0Z" transform="translate(0.14 0.091)" fill="none"/>
    </clipPath>
  </defs>
  <g id="Group_3" data-name="Group 3" transform="translate(-0.97)">
    <g id="Group_2" data-name="Group 2" transform="translate(76 19)">
      <ellipse id="Oval_2" data-name="Oval 2" cx="38.202" cy="5.256" rx="38.202" ry="5.256" transform="translate(7.64 116.578)" fill="#7f8fa4" opacity="0.225"/>
      <ellipse id="Oval_2_Copy" data-name="Oval 2 Copy" cx="33.427" cy="4.778" rx="33.427" ry="4.778" transform="translate(91.685 119.444)" fill="#7f8fa4" opacity="0.239"/>
      <g id="Group">
        <path id="Fill_1" data-name="Fill 1" d="M71.863,2.24S47.688-4.087,40.856,4.526c0,0-12.788-2.461-13.489,8.437,0,0-17.869,2.461-15.416,14.413,0,0-12.613,5.625-7.358,17.226,0,0-9.46,7.558-1.226,17.4,0,0-5.781,17.4,7.007,19.159,0,0-1.577,14.413,13.664,12.128,0,0,6.131,4.57,10.511,3.164,0,0,3.679,5.8,13.489.352,0,0,8.234,7.558,16.818-4.043,1.927-1.758,3.5-2.461,5.256-1.406s9.81-1.23,13.664-16.171c0,0,4.905-.176,7.007-12.48,0,0,11.62-7.6,4.5-19.445,0,0,11.8-29.6-23.416-41.021" transform="translate(0 21.863)" fill="#de4c60"/>
        <path id="Fill_3" data-name="Fill 3" d="M95.279,43.261s11.8-29.6-23.416-41.021c0,0-19.261-5.041-28.257,0,.1-.016,26.523-4.19,36.491,11.951C90.082,30.363,77.995,73.6,46.111,83.8,18.783,90.829,10.2,82.392,13.877,78.7c0,0-11.037-4.219-6.131-18.808,0,0-7.358-7.207,1.051-16.7,0,0-4.38-10.195,5.956-16.171,0,0-1.752-10.9,12.613-14.062,0,0-17.869,2.461-15.416,14.413,0,0-12.613,5.625-7.358,17.226,0,0-9.46,7.558-1.226,17.4,0,0-5.781,17.4,7.007,19.159,0,0-1.577,14.413,13.664,12.128,0,0,6.131,4.57,10.511,3.164,0,0,3.679,5.8,13.489.352,0,0,8.234,7.558,16.818-4.043,1.927-1.758,3.5-2.461,5.255-1.406s9.81-1.23,13.664-16.171c0,0,4.905-.176,7.007-12.48,0,0,11.621-7.6,4.5-19.445" transform="translate(0 21.863)" fill="#d3435a"/>
        <path id="Fill_5" data-name="Fill 5" d="M83.5,30.57S90.393,13.268,77.919,0C79.6,16.489,80.988,80.549,0,76.237c1.685,2.994,5.14,5.484,12.165,4.431,0,0,6.139,4.576,10.525,3.168,0,0,3.684,5.809,13.507.352,0,0,8.244,7.569,16.839-4.048,1.93-1.76,3.508-2.464,5.262-1.408S68.121,77.5,71.98,62.539c0,0,4.911-.176,7.016-12.5,0,0,11.636-7.613,4.5-19.472" transform="translate(11.778 34.476)" fill="#c13144"/>
        <path id="Fill_7" data-name="Fill 7" d="M45.52,1.926S64.052,15.7,29.459,42C11.633,55.773-17.136,40.237,13.4,11.636,34.224-4.253,43.755.16,45.52,1.926" transform="translate(16.826 25.227)" fill="#e76374"/>
        <path id="Fill_9" data-name="Fill 9" d="M0,0S2.48,10.863,13.461,7.709C13.461,7.709,1.24,14.367,0,0" transform="translate(63.097 35.317)" fill="#c5364f"/>
        <path id="Fill_11" data-name="Fill 11" d="M1.409,0s-3.133,9.739,7,8.637c0,0-12.534,4.043-7-8.637" transform="translate(39.541 27.749)" fill="#c5364f"/>
        <path id="Fill_13" data-name="Fill 13" d="M0,0S2.913,6.6,9.254,4.764c0,0-7.541,4.58-9.254-4.764" transform="translate(74.875 53.817)" fill="#c5364f"/>
        <path id="Fill_15" data-name="Fill 15" d="M0,0S3.257,11.631,16.826,4.687C16.826,4.687,3.438,15.624,0,0" transform="translate(58.891 68.112)" fill="#c5364f"/>
        <path id="Fill_17" data-name="Fill 17" d="M.261,0S-.639,14.483,14.3,11.587C14.3,11.587-2.259,17.721.261,0" transform="translate(36.176 60.544)" fill="#c5364f"/>
        <path id="Fill_19" data-name="Fill 19" d="M0,0S3.33,16.95,16.826,8.114C16.826,8.114,2.454,20.376,0,0" transform="translate(35.334 77.362)" fill="#c5364f"/>
        <path id="Fill_21" data-name="Fill 21" d="M0,2.212S10.7,8.112,20.191,0c0,0-8.284,11.616-20.191,2.212" transform="translate(53.002 96.702)" fill="#c5364f"/>
        <path id="Fill_23" data-name="Fill 23" d="M0,0S6.092,13.119,19.35,6.3C19.35,6.3,3.4,16.093,0,0" transform="translate(21.874 94.18)" fill="#c5364f"/>
        <path id="Fill_25" data-name="Fill 25" d="M0,0S2.432,14.049,15.985,7.469C15.985,7.469.521,16.895,0,0" transform="translate(16.826 83.248)" fill="#c5364f"/>
        <path id="Fill_27" data-name="Fill 27" d="M0,0S7.055,6.6,15.143,6.229C15.143,6.229,4.474,9.343,0,0" transform="translate(22.715 110.156)" fill="#c5364f"/>
        <path id="Fill_29" data-name="Fill 29" d="M0,0S5.448,5.5,14.3.859C14.3.859,4.086,8.93,0,0" transform="translate(47.954 114.361)" fill="#c5364f"/>
        <path id="Fill_31" data-name="Fill 31" d="M0,0S4.711,3.284,7.572,2.938C7.572,2.938,2.019,5.012,0,0" transform="translate(63.939 107.634)" fill="#c5364f"/>
        <path id="Fill_33" data-name="Fill 33" d="M0,5.83S5.384,6.741,9.254,0C9.254,0,7.74,9.657,0,5.83" transform="translate(10.937 98.384)" fill="#c5364f"/>
        <path id="Fill_35" data-name="Fill 35" d="M0,3.792A15.766,15.766,0,0,0,13.461,0S7.692,8.078,0,3.792" transform="translate(4.206 79.884)" fill="#c5364f"/>
        <path id="Fill_37" data-name="Fill 37" d="M0,0S5.711,5.046,11.778,1.941c0,0-7.5,6.21-11.778-1.941" transform="translate(4.206 66.43)" fill="#c5364f"/>
        <path id="Fill_39" data-name="Fill 39" d="M0,0S2.148,12.073,16.826,8.623C16.826,8.623,1.253,15.35,0,0" transform="translate(18.509 62.226)" fill="#c5364f"/>
        <path id="Fill_41" data-name="Fill 41" d="M.071,0S1.122,6.115,6.73,5.374C6.73,5.374-.805,8.339.071,0" transform="translate(11.778 49.612)" fill="#c5364f"/>
        <path id="Fill_43" data-name="Fill 43" d="M.169,0s1.6,6.262,6.561,8.409c0,0-7.98-.358-6.561-8.409" transform="translate(26.921 36.158)" fill="#c5364f"/>
        <path id="Fill_45" data-name="Fill 45" d="M.033,0S2.742,14.365,16.826,14.194c0,0-17.7,2.223-16.793-14.194" transform="translate(42.065 43.726)" fill="#c5364f"/>
        <path id="Fill_47" data-name="Fill 47" d="M0,0s-.354,13.425,13.46,8.125C13.461,8.125,0,16.074,0,0" transform="translate(63.097 35.317)" fill="#a01f31"/>
        <path id="Fill_49" data-name="Fill 49" d="M1.536,0S-3.622,11.653,8.413,7.938c0,0-12.722,6.08-6.877-7.938" transform="translate(38.7 27.749)" fill="#a01f31"/>
        <path id="Fill_51" data-name="Fill 51" d="M.012,0s.72,9.171,7.56,8.133c0,0-7.92,2.6-7.56-8.133" transform="translate(26.921 36.158)" fill="#a01f31"/>
        <path id="Fill_53" data-name="Fill 53" d="M.063,0S-1.379,16.065,16.826,14.668c0,0-18.024,4.54-16.763-14.668" transform="translate(42.065 43.726)" fill="#a01f31"/>
        <path id="Fill_55" data-name="Fill 55" d="M0,0S2.714,15.389,16.826,4.516C16.826,4.516,2.533,17.731,0,0" transform="translate(58.891 68.112)" fill="#a01f31"/>
        <path id="Fill_57" data-name="Fill 57" d="M0,2.774S5.153,4.9,11.778,0C11.778,0,6.073,7.181,0,2.774" transform="translate(40.382 85.771)" fill="#a01f31"/>
        <path id="Fill_59" data-name="Fill 59" d="M0,2.25S8.456,12,20.191,0c0,0-8.284,13.5-20.191,2.25" transform="translate(53.002 96.702)" fill="#a01f31"/>
        <path id="Fill_61" data-name="Fill 61" d="M0,0S2.508,16.549,19.35,6.476C19.35,6.476,2.867,19.966,0,0" transform="translate(21.874 94.18)" fill="#a01f31"/>
        <path id="Fill_63" data-name="Fill 63" d="M0,20.869s1.581,6.421,7.553,8.562A12.444,12.444,0,0,0,5.445,25.15s4.391-8.383,8.783-10.524,8.08-4.281,8.08-4.281l9.661-2.5S26,8.027,23.186,8.919a1.9,1.9,0,0,0-1.23-2.14c-1.581-.713-7.378-4.638-7.378-4.638L8.08,0S19.761,6.689,20.288,7.224s1.054,1.249-.7,2.14a61.284,61.284,0,0,0-5.8,3.567c-.7.535-1.932,2.14-2.459,2.319s-2.635.713-3.337,1.784-3.864,7.313-3.864,7.313S.439,21.137,0,20.869" transform="translate(79.082 9.25)" fill="#743e10"/>
        <path id="Fill_65" data-name="Fill 65" d="M34.17,30.238s1.593-12.618-2.3-19.025S22.662-1.6,5.843.358C3.9.714,2.479,1.782,0,1.248c0,0,3.9,2.669,4.426,3.737S6.551,7.655,9.915,8.723s9.915,3.737,11.685,7.83,7.436,14.38,12.57,13.686" transform="translate(47.113 0)" fill="#a3c445"/>
        <path id="Fill_67" data-name="Fill 67" d="M2.86,2.827S-.327,1.044.027.687,12.6-1.809,18.615,3.9,30.652,18.16,29.236,21.547s-1.947-1.783-2.655-3.388S23.571,4.788,9.41,4.431c0,0,.708,0,2.832,1.426s15.047,15.868,15.047,19.79-1.77,1.6-3.54-.891S13.835,9.78,7.816,6.927-.681,3.9,2.86,2.827" transform="translate(51.319 0.841)" fill="#b6d553"/>
        <g id="Group_71" data-name="Group 71" transform="translate(74.875 68.953)">
          <path id="Clip_70-2" data-name="Clip 70" d="M0,0H94.115V56.454H0Z" transform="translate(0.085 0.091)" fill="none"/>
          <g id="Group_71-2" data-name="Group 71" clip-path="url(#clip-path)">
            <path id="Fill_69" data-name="Fill 69" d="M.676,7.032s-3.359,7.633,4.9,11.861c0,0-3.692,12.507,8.262,16.03,0,0,1.406,12.155,13.712,12.155,0,0,10.548,12.859,21.1,7.046,0,0,11.427,7.927,17.228-5.461,0,0,6.329-.528,8.614-5.461,0,0,8.262-3.171,8.438-10.921,0,0,12.13-1.057,6.856-17.087,0,0,7.424-8.642,2.833-15.154,0,0-67.311-.993-91.941,6.993" transform="translate(0.085 0.091)" fill="#de4c60"/>
          </g>
        </g>
        <path id="Fill_72" data-name="Fill 72" d="M0,1.069S4.13,5.171,9.254,0C9.254,0,5.093,8.7,0,1.069" transform="translate(80.764 86.612)" fill="#c5354e"/>
        <path id="Fill_74" data-name="Fill 74" d="M8.413,0S6.95,4.69,0,6.7c0,0,8.413.837,8.413-6.7" transform="translate(90.019 96.702)" fill="#c5354e"/>
        <path id="Fill_76" data-name="Fill 76" d="M0,3.054S9.8,11.537,17.667,0c0,0-4.9,14.76-17.667,3.054" transform="translate(106.845 96.702)" fill="#c5354e"/>
        <path id="Fill_78" data-name="Fill 78" d="M0,6.483A21.749,21.749,0,0,0,11.778,0S8.209,8.235,0,6.483" transform="translate(97.59 108.475)" fill="#c5354e"/>
        <g id="Group_82" data-name="Group 82" transform="translate(107.686 68.953)">
          <path id="Clip_81-2" data-name="Clip 81" d="M0,0H61.249V56.454H0Z" transform="translate(0.14 0.091)" fill="none"/>
          <g id="Group_82-2" data-name="Group 82" clip-path="url(#clip-path-2)">
            <path id="Fill_80" data-name="Fill 80" d="M59.74.04S56.9,0,52.181,0q-.027.544-.071,1.1S49.9,47.769,0,52.21c4.059,2.768,9.765,5.038,15.473,1.914,0,0,11.5,7.927,17.345-5.461,0,0,6.372-.528,8.672-5.461,0,0,8.318-3.171,8.5-10.921,0,0,12.212-1.057,6.9-17.087,0,0,7.475-8.642,2.852-15.154" transform="translate(0.14 0.091)" fill="#c13144"/>
          </g>
        </g>
        <path id="Fill_83" data-name="Fill 83" d="M0,5.931S11.748,12.192,19.35,0c0,0-5.183,15.981-19.35,5.931" transform="translate(127.036 95.861)" fill="#c5354e"/>
        <path id="Fill_85" data-name="Fill 85" d="M0,9.011A17.865,17.865,0,0,0,13.461,0S11.867,10.993,0,9.011" transform="translate(136.29 107.634)" fill="#c5354e"/>
        <path id="Fill_87" data-name="Fill 87" d="M0,11.772S6.439,9.933,9.245,0c0,0,.66,11.772-9.245,11.772" transform="translate(154.798 88.293)" fill="#c5354e"/>
        <path id="Fill_89" data-name="Fill 89" d="M0,4.136S5.21,1.788,6.73,0c0,0-1.12,4.833-6.73,4.136" transform="translate(159.846 79.884)" fill="#c5354e"/>
        <path id="Fill_91" data-name="Fill 91" d="M9.846,0S10.9,10.686,0,11.772c0,0,11.956-.362,9.846-11.772" transform="translate(154.798 88.293)" fill="#a9283c"/>
        <path id="Fill_93" data-name="Fill 93" d="M0,6.523S13.3,17.214,19.35,0c0,0-4.665,19.388-19.35,6.523" transform="translate(127.036 95.861)" fill="#a9283c"/>
        <path id="Fill_95" data-name="Fill 95" d="M0,8.864S10.981,10.6,13.461,0c0,0-.708,11.471-13.461,8.864" transform="translate(136.29 107.634)" fill="#a9283c"/>
        <path id="Fill_97" data-name="Fill 97" d="M11.778,0S5.818,3.051,0,2.65C0,2.65,8.733,5.435,11.778,0" transform="translate(112.734 121.088)" fill="#c5354e"/>
        <path id="Fill_99" data-name="Fill 99" d="M0,6.39S8.526,7.355,11.778,0c0,0-1.646,8.5-11.778,6.39" transform="translate(97.59 108.475)" fill="#a9283c"/>
        <path id="Fill_101" data-name="Fill 101" d="M0,3.4S11.2,16.051,17.667,0c0,0-5.073,18.317-17.667,3.4" transform="translate(106.845 96.702)" fill="#a9283c"/>
        <path id="Fill_103" data-name="Fill 103" d="M0,6.512S7.986,7,8.341,0c0,0,1.42,8.14-8.341,6.512" transform="translate(90.019 96.702)" fill="#a9283c"/>
        <path id="Fill_105" data-name="Fill 105" d="M0,1.066S4.365,7.283,9.254,0C9.254,0,5.238,8.7,0,1.066" transform="translate(80.764 86.612)" fill="#a9283c"/>
        <path id="Fill_107" data-name="Fill 107" d="M0,3.919S5.265,4.679,6.73,0c0,0-.754,5.5-6.73,3.919" transform="translate(159.846 80.725)" fill="#a9283c"/>
        <path id="Fill_109" data-name="Fill 109" d="M11.778,0S8.413,5.788,0,2.794C0,2.794,8.413,7.385,11.778,0" transform="translate(112.734 121.088)" fill="#a9283c"/>
        <path id="Fill_111" data-name="Fill 111" d="M91.149,6.483S61.169,55.265,1.033,13.118C-3,9.89,5.766,6.3,10.325,6.483S65.2-5,89.046,2.537c3.156.717,2.981,2.511,2.1,3.946" transform="translate(75.717 64.748)" fill="#ffa4a7"/>
        <path id="Fill_113" data-name="Fill 113" d="M0,0S.146.125.429.355C3.829,3.107,27,20.839,54.684,16.6,54.684,16.6,34.552,26.777,0,0" transform="translate(76.558 77.362)" fill="#d4455c"/>
        <path id="Fill_115" data-name="Fill 115" d="M73.818,49.011s-30.94,28.6-73.13,4.211c0,0-8.573-50.566,34.807-53.159C64.852-1.692,75.752,33.748,73.818,49.011" transform="translate(84.971 26.068)" fill="#fcebea"/>
        <path id="Fill_117" data-name="Fill 117" d="M0,30.4S2.456,11.146,21.054,2.845,52.108,5.671,41.581,19.977.351,44.174,0,30.4" transform="translate(88.336 27.749)" fill="#fff7f6"/>
        <path id="Fill_119" data-name="Fill 119" d="M46.764,0C55.08,4.916,69.131,17.352,67.89,44.891c0,0-31.226,27.515-67.89,6.66,42.1,24.36,72.977-4.206,72.977-4.206C74.615,34.4,67.022,6.929,46.764,0" transform="translate(85.812 27.749)" fill="#f5d3d4"/>
      </g>
    </g>
    <path id="Oval_3" data-name="Oval 3" d="M5.947,8.26c-.52-1.067-.755-2.025-.524-2.138s.842.661,1.362,1.729.755,2.024.524,2.137a.115.115,0,0,1-.05.011C7,10,6.434,9.258,5.947,8.26ZM2.795,9.988c-.231-.113,0-1.069.524-2.137S4.449,6.01,4.68,6.123s0,1.07-.524,2.138C3.669,9.257,3.105,10,2.845,10A.115.115,0,0,1,2.795,9.988ZM7.9,6.4c-1.157-.267-2.048-.688-1.99-.938s1.042-.238,2.2.029,2.048.688,1.991.939c-.028.12-.268.179-.639.179A7.409,7.409,0,0,1,7.9,6.4ZM0,6.432c-.058-.251.833-.671,1.991-.939s2.142-.28,2.2-.029-.832.67-1.99.938a7.409,7.409,0,0,1-1.562.209C.271,6.611.031,6.552,0,6.432ZM2.39,3.682C1.467,2.935.85,2.167,1.012,1.967s1.042.244,1.965.992,1.54,1.516,1.378,1.715a.162.162,0,0,1-.133.048A4.41,4.41,0,0,1,2.39,3.682Zm3.36.992c-.162-.2.454-.968,1.378-1.715s1.8-1.192,1.965-.992-.455.968-1.378,1.715a4.414,4.414,0,0,1-1.832,1.04A.162.162,0,0,1,5.749,4.674ZM4.586,2.15C4.586.963,4.794,0,5.052,0s.466.963.466,2.15S5.309,4.3,5.052,4.3,4.586,3.338,4.586,2.15Z" transform="translate(45.948 23)" fill="#ff8500"/>
    <path id="Oval_4" data-name="Oval 4" d="M6,12a6,6,0,1,1,6-6A6.007,6.007,0,0,1,6,12ZM6,1.715A4.286,4.286,0,1,0,10.286,6,4.291,4.291,0,0,0,6,1.715Z" transform="translate(226 16)" fill="#042de0"/>
    <path id="Oval_4_Copy" data-name="Oval 4 Copy" d="M3.5,7A3.5,3.5,0,1,1,7,3.5,3.5,3.5,0,0,1,3.5,7Zm0-6A2.5,2.5,0,1,0,6,3.5,2.5,2.5,0,0,0,3.5,1Z" transform="translate(276)" fill="#858bee"/>
    <path id="Oval_4_Copy-2" data-name="Oval 4 Copy" d="M3.5,7A3.5,3.5,0,1,1,7,3.5,3.5,3.5,0,0,1,3.5,7Zm0-6A2.5,2.5,0,1,0,6,3.5,2.5,2.5,0,0,0,3.5,1Z" transform="translate(41 142)" fill="#858bee"/>
    <path id="Combined_Shape" data-name="Combined Shape" d="M2.8,6.3V4.2H.7a.7.7,0,0,1,0-1.4H2.8V.7A.7.7,0,0,1,4.2.7V2.8H6.3a.7.7,0,0,1,0,1.4H4.2V6.3a.7.7,0,0,1-1.4,0Z" transform="translate(267 38)" fill="#ff8500"/>
    <path id="Combined_Shape_Copy" data-name="Combined Shape Copy" d="M4.4,9.9V6.6H1.1a1.1,1.1,0,1,1,0-2.2H4.4V1.1a1.1,1.1,0,1,1,2.2,0V4.4H9.9a1.1,1.1,0,1,1,0,2.2H6.6V9.9a1.1,1.1,0,1,1-2.2,0Z" transform="translate(44 60)" fill="#042de0"/>
    <path id="Rectangle_6" data-name="Rectangle 6" d="M6.461,10.492,5.53,7.934,4.6,10.492a.769.769,0,1,1-1.444-.526l.94-2.582L1.727,8.751A.769.769,0,0,1,.959,7.42l2.4-1.383L.635,5.557A.769.769,0,1,1,.9,4.042l2.706.477L1.833,2.4a.769.769,0,0,1,1.178-.988L4.761,3.5V.769A.769.769,0,1,1,6.3.769V3.5L8.049,1.416A.768.768,0,0,1,9.226,2.4L7.451,4.519l2.706-.477a.769.769,0,0,1,.267,1.515l-2.72.48L10.1,7.42a.769.769,0,1,1-.769,1.331L6.966,7.385l.94,2.582a.769.769,0,1,1-1.444.526ZM5.212,6.561a.76.76,0,0,1,.318.219.772.772,0,0,1,.7-.256.773.773,0,0,1,.1-.391.763.763,0,0,1,.287-.284.767.767,0,0,1-.138-.78A.76.76,0,0,1,6.128,4.9.771.771,0,0,1,5.9,4.577a.769.769,0,0,1-.741,0,.768.768,0,0,1-.585.491.769.769,0,0,1-.138.78.759.759,0,0,1,.288.284.771.771,0,0,1,.1.391.781.781,0,0,1,.122-.01A.76.76,0,0,1,5.212,6.561Z" transform="translate(0.97 87)" fill="#dea1f8"/>
    <path id="Rectangle_6_Copy" data-name="Rectangle 6 Copy" d="M6.461,10.492,5.53,7.934,4.6,10.492a.769.769,0,1,1-1.444-.526l.94-2.582L1.727,8.751A.769.769,0,0,1,.959,7.42l2.4-1.383L.635,5.557A.769.769,0,1,1,.9,4.042l2.706.477L1.833,2.4a.769.769,0,0,1,1.178-.988L4.761,3.5V.769A.769.769,0,1,1,6.3.769V3.5L8.049,1.416A.768.768,0,0,1,9.226,2.4L7.451,4.519l2.706-.477a.769.769,0,0,1,.267,1.515l-2.72.48L10.1,7.42a.769.769,0,1,1-.769,1.331L6.966,7.385l.94,2.582a.769.769,0,1,1-1.444.526ZM5.212,6.561a.76.76,0,0,1,.318.219.772.772,0,0,1,.7-.256.773.773,0,0,1,.1-.391.763.763,0,0,1,.287-.284.767.767,0,0,1-.138-.78A.76.76,0,0,1,6.128,4.9.771.771,0,0,1,5.9,4.577a.769.769,0,0,1-.741,0,.768.768,0,0,1-.585.491.769.769,0,0,1-.138.78.759.759,0,0,1,.288.284.771.771,0,0,1,.1.391.781.781,0,0,1,.122-.01A.76.76,0,0,1,5.212,6.561Z" transform="translate(307.97 141)" fill="#6fdf68"/>
  </g>
</svg>
