<svg xmlns="http://www.w3.org/2000/svg" width="135.674" height="137.132" viewBox="0 0 135.674 137.132">
  <g id="Group_2" data-name="Group 2" transform="translate(2)">
    <g id="Group" transform="translate(20 38)">
      <rect id="Rectangle_10" data-name="Rectangle 10" width="62" height="63" transform="translate(4 20)" fill="#fff"/>
      <rect id="Rectangle_9" data-name="Rectangle 9" width="64" height="59" rx="4" transform="translate(25 9)" fill="#f9f9ff"/>
      <rect id="Rectangle" width="7" height="7" rx="3.5" transform="translate(31 15)" fill="#858bee"/>
      <rect id="Rectangle_Copy" data-name="Rectangle Copy" width="27" height="3" rx="1.5" transform="translate(41 17)" fill="#858bee"/>
      <rect id="Rectangle_Copy_3" data-name="Rectangle Copy 3" width="7" height="7" rx="3.5" transform="translate(31 26)" fill="#858bee"/>
      <rect id="Rectangle_Copy_2" data-name="Rectangle Copy 2" width="27" height="3" rx="1.5" transform="translate(41 28)" fill="#858bee"/>
      <rect id="Rectangle_11" data-name="Rectangle 11" width="49" height="9" rx="2" transform="translate(31 60)" fill="#e1e2fc"/>
      <rect id="Rectangle_Copy_5" data-name="Rectangle Copy 5" width="7" height="7" rx="3.5" transform="translate(31 38)" fill="#858bee"/>
      <rect id="Rectangle_Copy_4" data-name="Rectangle Copy 4" width="27" height="3" rx="1.5" transform="translate(41 40)" fill="#858bee"/>
      <path id="Shape" d="M60,66H10c-2.36-.038-6.033-2.53-6-5V53.781c0-1.821-1.291-3.128-1.291-4.949C2.709,47.39,4,45.434,4,43.991V8C3.967,5.612,6.391,4.116,9,4h2c1.717.116,2.874.463,3-2-.126-1.71-1.2-2-3-2H9C2.041,0,0,1.2,0,8V43.842c0,1.663,1.062,3.448,1.062,5.111C1.062,50.635,0,52.2,0,53.878,0,56.252,0,61,0,61c0,6.542,2.437,9,9,9H60c6.768-.289,8.316-1.7,9-9a3.807,3.807,0,0,0-1.932-.668c-.8,0-1.912.21-2.068.668C64.568,63.577,62.594,65.962,60,66Z" transform="translate(0 16)" fill="#042de0"/>
      <path id="Combined_Shape_Copy_2" data-name="Combined Shape Copy 2" d="M9.91,4H.007A2,2,0,0,0,2,2,2,2,0,0,0,0,0H9.994A2,2,0,0,0,9.91,4Z" transform="translate(4 60) rotate(90)" fill="#fff"/>
      <path id="Shape-2" data-name="Shape" d="M59.884,71.978H9.121c-3.411,0-5.655-.655-7.063-2.062S0,66.277,0,62.881V43.717a6.582,6.582,0,0,1,.788-2.641,6.584,6.584,0,0,0,.789-2.642,4.748,4.748,0,0,0-.788-2.076A4.751,4.751,0,0,1,0,34.282V28.7a6.765,6.765,0,0,1,.66-2.438,6.766,6.766,0,0,0,.66-2.438,5.7,5.7,0,0,0-.66-2.212A5.7,5.7,0,0,1,0,19.4V9.68C0,6.256.57,4.151,1.848,2.857S5.219.978,8.619.978h6.005a3.8,3.8,0,0,1,1.871.257c.4.256.574.775.574,1.734,0,2.012-.8,2.012-2.558,2.012H8.619A4.657,4.657,0,0,0,5.457,6.644,5.177,5.177,0,0,0,3.931,9.935v9.292a5.935,5.935,0,0,1-.665,2.3,5.935,5.935,0,0,0-.665,2.3,6.178,6.178,0,0,0,.665,2.293,6.178,6.178,0,0,1,.665,2.293V34.5a5.788,5.788,0,0,1-.665,2.248A5.785,5.785,0,0,0,2.6,39a5.952,5.952,0,0,0,.665,2.265,5.95,5.95,0,0,1,.665,2.264V63.379c0,.935.779,1.968,2.137,2.835A7.86,7.86,0,0,0,9.9,67.5H60.38a5.089,5.089,0,0,0,3.156-1.241,3.9,3.9,0,0,0,1.515-2.879v-.864a6.009,6.009,0,0,1,.667-2.3,6.006,6.006,0,0,0,.666-2.3,6.134,6.134,0,0,0-.666-2.3,6.134,6.134,0,0,1-.666-2.3V9.686a4.792,4.792,0,0,0-1.515-3.167A4.722,4.722,0,0,0,60.38,4.982H55.032a5.981,5.981,0,0,1-2.146-.251A1.421,1.421,0,0,1,52,3.246c0-2,1.859-2.268,3.677-2.268h4.7A9.645,9.645,0,0,1,67.518,4.04C68.9,5.508,69,7.229,69,9.686V53.113a6.661,6.661,0,0,1-.741,2.4,6.66,6.66,0,0,0-.741,2.4c0,1.79,1.467,4.935,1.482,4.966C69,69.938,66.956,71.978,59.884,71.978ZM42.818,6.953H26.5c-2.506,0-4.671,0-4.671-2.872A3.733,3.733,0,0,1,23.2.971,5.3,5.3,0,0,1,26.5,0H42.728C45.652,0,47.4,1.525,47.4,4.081,47.4,6.953,45.174,6.953,42.818,6.953Z" transform="translate(17 0.021)" fill="#042de0"/>
      <path id="Combined_Shape_Copy_3" data-name="Combined Shape Copy 3" d="M9.91,4H.007A2,2,0,0,0,2,2,2,2,0,0,0,0,0H9.994A2,2,0,0,0,9.91,4Z" transform="translate(21 19) rotate(90)" fill="#fff"/>
      <path id="Combined_Shape_Copy_5" data-name="Combined Shape Copy 5" d="M9.91,4H.007A2,2,0,0,0,2,2,2,2,0,0,0,0,0H9.994A2,2,0,0,0,9.91,4Z" transform="translate(86 53) rotate(90)" fill="#f9f9ff"/>
      <path id="Combined_Shape_Copy_4" data-name="Combined Shape Copy 4" d="M9.91,4H.007A2,2,0,0,0,2,2,2,2,0,0,0,0,0H9.994A2,2,0,0,0,9.91,4Z" transform="translate(21 34) rotate(90)" fill="#fff"/>
    </g>
    <path id="Oval_3" data-name="Oval 3" d="M6.324,8.647C5.78,7.53,5.54,6.527,5.788,6.406s.891.686,1.436,1.8.785,2.12.536,2.242a.121.121,0,0,1-.054.012C7.427,10.463,6.833,9.69,6.324,8.647Zm-3.357,1.8c-.248-.122-.008-1.125.537-2.242s1.187-1.924,1.436-1.8S4.948,7.53,4.4,8.647c-.509,1.043-1.1,1.815-1.381,1.815A.123.123,0,0,1,2.967,10.451ZM8.42,6.71c-1.211-.28-2.142-.725-2.08-.994s1.094-.26,2.3.019,2.142.725,2.08.994c-.031.131-.292.2-.691.2A7.612,7.612,0,0,1,8.42,6.71ZM0,6.729c-.062-.269.869-.714,2.08-.994s2.243-.288,2.3-.019-.869.714-2.08.994a7.6,7.6,0,0,1-1.614.215C.294,6.926.033,6.861,0,6.729ZM2.508,3.862C1.543,3.08.9,2.273,1.075,2.057s1.1.246,2.063,1.028,1.607,1.589,1.434,1.8a.178.178,0,0,1-.145.053A4.554,4.554,0,0,1,2.508,3.862ZM6.156,4.89c-.174-.215.468-1.022,1.434-1.8S9.48,1.843,9.653,2.057,9.185,3.08,8.22,3.862A4.554,4.554,0,0,1,6.3,4.942.177.177,0,0,1,6.156,4.89ZM4.864,2.25c0-1.243.224-2.25.5-2.25s.5,1.007.5,2.25S5.64,4.5,5.364,4.5,4.864,3.493,4.864,2.25Z" transform="translate(73 7)" fill="#ff8500"/>
    <path id="Oval_4" data-name="Oval 4" d="M6.375,12.75A6.375,6.375,0,1,1,12.75,6.375,6.382,6.382,0,0,1,6.375,12.75Zm0-10.929a4.554,4.554,0,1,0,4.554,4.553A4.558,4.558,0,0,0,6.375,1.822Z" transform="translate(107 33)" fill="#042de0"/>
    <path id="Oval_4_Copy" data-name="Oval 4 Copy" d="M3.5,7A3.5,3.5,0,1,1,7,3.5,3.5,3.5,0,0,1,3.5,7Zm0-6A2.5,2.5,0,1,0,6,3.5,2.5,2.5,0,0,0,3.5,1Z" transform="translate(100)" fill="#858bee"/>
    <path id="Oval_4_Copy-2" data-name="Oval 4 Copy" d="M3.5,7A3.5,3.5,0,1,1,7,3.5,3.5,3.5,0,0,1,3.5,7Zm0-6A2.5,2.5,0,1,0,6,3.5,2.5,2.5,0,0,0,3.5,1Z" transform="translate(0 60)" fill="#858bee"/>
    <path id="Combined_Shape" data-name="Combined Shape" d="M3.1,6.97V4.647H.774a.774.774,0,0,1,0-1.549H3.1V.774a.774.774,0,0,1,1.549,0V3.1H6.97a.774.774,0,0,1,0,1.549H4.647V6.97a.774.774,0,0,1-1.549,0Z" transform="translate(125.931 60.047)" fill="#ff8500"/>
    <path id="Rectangle_6" data-name="Rectangle 6" d="M6.6,10.642l-.947-2.6-.947,2.6A.791.791,0,1,1,3.223,10.1L4.17,7.5l-2.4,1.384A.791.791,0,0,1,.982,7.516l2.4-1.384L.653,5.651A.791.791,0,0,1,.928,4.094l2.726.481L1.875,2.454A.791.791,0,0,1,3.086,1.438L4.865,3.559V.79a.79.79,0,1,1,1.58,0V3.559l1.779-2.12A.791.791,0,0,1,9.437,2.454L7.657,4.575l2.726-.481a.791.791,0,0,1,.275,1.557l-2.726.481,2.4,1.384a.79.79,0,0,1-.79,1.369L7.141,7.5l.947,2.6a.79.79,0,1,1-1.485.541ZM5.318,6.658a.776.776,0,0,1,.338.239.786.786,0,0,1,.75-.273.793.793,0,0,1,.4-.691.781.781,0,0,1-.176-.374.79.79,0,0,1,.037-.411.793.793,0,0,1-.611-.513.79.79,0,0,1-.8,0,.792.792,0,0,1-.611.513.791.791,0,0,1-.138.786.793.793,0,0,1,.4.691.776.776,0,0,1,.143-.013A.788.788,0,0,1,5.318,6.658Z" transform="translate(32 22)" fill="#dea1f8"/>
    <path id="Path" d="M1.483,7.132A1.463,1.463,0,0,1,.425,6.684a1.5,1.5,0,0,1,.018-2.11L4.65.422A1.491,1.491,0,0,1,6.734,2.556L2.526,6.708a1.492,1.492,0,0,1-1.043.424Z" transform="translate(10 130)" fill="#3bc6d1"/>
    <path id="Path-2" data-name="Path" d="M1.487,15.959A1.491,1.491,0,0,1,.435,13.413L13.332.437a1.482,1.482,0,0,1,2.1,0,1.5,1.5,0,0,1,0,2.11L2.536,15.523a1.477,1.477,0,0,1-1.049.436Z" transform="translate(-2 115)" fill="#858bee"/>
  </g>
</svg>
