<svg xmlns="http://www.w3.org/2000/svg" width="160.9" height="112.132" viewBox="0 0 160.9 112.132">
  <g id="Group_4" data-name="Group 4" transform="translate(-626 -291)">
    <g id="Group_3" data-name="Group 3">
      <g id="Group_2" data-name="Group 2" transform="translate(626 291)">
        <path id="Combined_Shape_Copy_3" data-name="Combined Shape Copy 3" d="M105.736,51.082H3.2a3.2,3.2,0,0,1-3.2-3.2V38.312a12.727,12.727,0,0,0,9.013-3.79,12.633,12.633,0,0,0,3.8-8.981c0-7.482-5.749-13.568-12.816-13.568V3.2A3.2,3.2,0,0,1,3.2,0H105.736a3.2,3.2,0,0,1,3.2,3.2v8.772A13.3,13.3,0,0,0,95.318,25.541c0,7.042,6.109,12.771,13.617,12.771v9.571A3.2,3.2,0,0,1,105.736,51.082Z" transform="translate(24.03 35.119)" fill="#f9f9ff"/>
        <rect id="Rectangle_7" data-name="Rectangle 7" width="104.129" height="6.385" transform="translate(24.03 75.028)" fill="#e1e2fc"/>
        <path id="Combined_Shape" data-name="Combined Shape" d="M105.736,51.082H3.2a3.2,3.2,0,0,1-3.2-3.2V38.312a12.727,12.727,0,0,0,9.013-3.79,12.633,12.633,0,0,0,3.8-8.981c0-7.482-5.749-13.568-12.816-13.568V3.2A3.2,3.2,0,0,1,3.2,0H105.736a3.2,3.2,0,0,1,3.2,3.2v8.772A13.3,13.3,0,0,0,95.318,25.541c0,7.042,6.109,12.771,13.617,12.771v9.571A3.2,3.2,0,0,1,105.736,51.082Z" transform="translate(20.025 31.927)" fill="none" stroke="#042de0" stroke-linecap="round" stroke-miterlimit="10" stroke-width="3.2"/>
        <text id="_" data-name="%" transform="translate(74 68)" fill="#858bee" font-size="32" font-family="SourceSansPro-Bold, Source Sans Pro" font-weight="700"><tspan x="0" y="0">%</tspan></text>
        <path id="Combined_Shape_Copy" data-name="Combined Shape Copy" d="M8.01,3.622H.1L.091,3.415A1.6,1.6,0,0,0,1.6,1.823a1.6,1.6,0,0,0-1.6-1.6L0,0H8.01V.226a1.6,1.6,0,1,0,0,3.192v.2Z" transform="translate(96.92 30.105)" fill="#fff"/>
        <path id="Combined_Shape_Copy_5" data-name="Combined Shape Copy 5" d="M8.01,3.622H.1L.091,3.415A1.6,1.6,0,0,0,1.6,1.823a1.6,1.6,0,0,0-1.6-1.6L0,0H8.01V.226a1.6,1.6,0,1,0,0,3.192v.2Z" transform="translate(81.736 30.105)" fill="#fff"/>
        <rect id="Rectangle_3" data-name="Rectangle 3" width="149.786" height="3.193" rx="1.596" transform="translate(0 83.807)" fill="#042de0"/>
        <path id="Combined_Shape-2" data-name="Combined Shape" d="M8.01,3.5H0v-.3A1.6,1.6,0,0,0,1.6,1.6,1.6,1.6,0,0,0,0,0H8A1.6,1.6,0,1,0,8.01,3.192v.3Z" transform="translate(32.04 83.807)" fill="#fff"/>
        <path id="Combined_Shape_Copy_2" data-name="Combined Shape Copy 2" d="M8.01,3.5H0v-.3A1.6,1.6,0,0,0,1.6,1.6,1.6,1.6,0,0,0,0,0H8A1.6,1.6,0,1,0,8.01,3.192v.3Z" transform="translate(48.46 83.807)" fill="#fff"/>
        <path id="Combined_Shape_Copy_4" data-name="Combined Shape Copy 4" d="M7.929,3.192H.007A1.6,1.6,0,1,0,0,0H8a1.6,1.6,0,0,0-.074,3.19Z" transform="translate(21.621 71.821) rotate(90)" fill="#fff"/>
        <g id="Group" transform="translate(55.269 35.119)">
          <rect id="Rectangle_4" data-name="Rectangle 4" width="2.403" height="7.183" rx="1.201" fill="#042de0"/>
          <rect id="Rectangle_4_Copy" data-name="Rectangle 4 Copy" width="2.403" height="7.183" rx="1.201" transform="translate(0 9.578)" fill="#042de0"/>
          <rect id="Rectangle_4_Copy_2" data-name="Rectangle 4 Copy 2" width="2.403" height="7.183" rx="1.201" transform="translate(0 19.156)" fill="#042de0"/>
          <rect id="Rectangle_4_Copy_3" data-name="Rectangle 4 Copy 3" width="2.403" height="7.183" rx="1.201" transform="translate(0 28.734)" fill="#042de0"/>
          <rect id="Rectangle_4_Copy_4" data-name="Rectangle 4 Copy 4" width="2.403" height="7.183" rx="1.201" transform="translate(0 38.312)" fill="#042de0"/>
        </g>
        <path id="Oval_3" data-name="Oval 3" d="M5.066,6.9c-.435-.892-.626-1.693-.427-1.79s.713.547,1.147,1.438.626,1.693.427,1.79a.1.1,0,0,1-.044.01C5.946,8.351,5.472,7.735,5.066,6.9ZM2.38,8.341c-.2-.1-.007-.9.428-1.79s.949-1.535,1.147-1.438.008.9-.427,1.79c-.406.832-.88,1.448-1.1,1.448A.1.1,0,0,1,2.38,8.341ZM6.745,5.358c-.967-.223-1.71-.579-1.661-.795s.874-.209,1.84.013,1.709.579,1.66.795c-.024.105-.234.158-.554.158A6.014,6.014,0,0,1,6.745,5.358ZM.009,5.371c-.05-.216.693-.571,1.66-.795s1.79-.229,1.84-.013-.693.571-1.66.795a6.028,6.028,0,0,1-1.285.171C.243,5.529.033,5.477.009,5.371Zm2-2.288C1.238,2.46.726,1.814.866,1.643s.877.194,1.647.819S3.8,3.73,3.657,3.9a.144.144,0,0,1-.117.042A3.626,3.626,0,0,1,2.009,3.083ZM4.936,3.9C4.8,3.73,5.309,3.085,6.08,2.462s1.508-.991,1.648-.819-.373.817-1.144,1.441a3.619,3.619,0,0,1-1.531.861A.143.143,0,0,1,4.936,3.9ZM3.9,1.8C3.9.8,4.075,0,4.3,0s.4.8.4,1.8-.179,1.8-.4,1.8S3.9,2.787,3.9,1.8Z" transform="translate(88.109)" fill="#ff8500"/>
        <path id="Oval_4" data-name="Oval 4" d="M5.107,10.176a5.088,5.088,0,1,1,5.106-5.088A5.1,5.1,0,0,1,5.107,10.176Zm0-8.723A3.635,3.635,0,1,0,8.753,5.089,3.646,3.646,0,0,0,5.107,1.454Z" transform="translate(117.947 4.19)" fill="#042de0"/>
        <path id="Oval_4_Copy" data-name="Oval 4 Copy" d="M2.8,5.587a2.794,2.794,0,1,1,2.8-2.794A2.8,2.8,0,0,1,2.8,5.587ZM2.8.8a2,2,0,1,0,2,2A2,2,0,0,0,2.8.8Z" transform="translate(155.293 0.698)" fill="#16d1c4"/>
        <path id="Combined_Shape-3" data-name="Combined Shape" d="M4.811,10.8V7.184H1.2a1.2,1.2,0,0,1,0-2.395H4.811V1.176a1.2,1.2,0,1,1,2.394,0V4.789h3.613a1.2,1.2,0,0,1,0,2.395H7.2V10.8a1.2,1.2,0,1,1-2.394,0Z" transform="translate(133.766 51.881)" fill="#ff8500"/>
        <path id="Rectangle_6" data-name="Rectangle 6" d="M5.287,8.493,4.53,6.417,3.774,8.493a.633.633,0,0,1-1.19-.433l.755-2.073-1.913,1.1A.633.633,0,1,1,.793,6L2.7,4.9.53,4.513A.633.633,0,1,1,.75,3.266l2.171.383L1.506,1.962a.633.633,0,0,1,.97-.814L3.9,2.842V.633a.633.633,0,0,1,1.266,0v2.21L6.584,1.148a.633.633,0,1,1,.969.814L6.138,3.65l2.173-.383a.633.633,0,0,1,.22,1.246L6.361,4.9,8.267,6a.633.633,0,1,1-.633,1.1l-1.913-1.1L6.476,8.06a.633.633,0,1,1-1.19.433ZM4.257,5.315a.633.633,0,0,1,.273.193A.641.641,0,0,1,4.8,5.315a.623.623,0,0,1,.333-.027.623.623,0,0,1,.085-.319.634.634,0,0,1,.235-.233.622.622,0,0,1-.14-.3.631.631,0,0,1,.029-.329A.627.627,0,0,1,4.854,3.7a.633.633,0,0,1-.647,0,.633.633,0,0,1-.491.412.63.63,0,0,1,.029.328.622.622,0,0,1-.14.3.636.636,0,0,1,.319.553.624.624,0,0,1,.333.027Z" transform="translate(40.05 9.578)" fill="#dea1f8"/>
      </g>
      <path id="Path" d="M1.483,7.132A1.463,1.463,0,0,1,.425,6.684a1.5,1.5,0,0,1,.018-2.11L4.65.422A1.491,1.491,0,0,1,6.734,2.556L2.526,6.708a1.492,1.492,0,0,1-1.043.424Z" transform="translate(649 396)" fill="#3bc6d1"/>
    </g>
    <path id="Path-2" data-name="Path" d="M1.487,15.959A1.491,1.491,0,0,1,.435,13.413L13.332.437a1.482,1.482,0,0,1,2.1,0,1.5,1.5,0,0,1,0,2.11L2.536,15.523a1.477,1.477,0,0,1-1.049.436Z" transform="translate(637 381)" fill="#858bee"/>
  </g>
</svg>
