<svg id="Group" xmlns="http://www.w3.org/2000/svg" xmlns:xlink="http://www.w3.org/1999/xlink" width="362" height="434" viewBox="0 0 362 434">
  <defs>
    <clipPath id="clip-path">
      <path id="Clip_12" data-name="Clip 12" d="M0,434H362V0H0Z" fill="none"/>
    </clipPath>
  </defs>
  <path id="Fill_1" data-name="Fill 1" d="M81.8.459C-25.1-9.4-13.362,141.477,38.408,245.076a3.718,3.718,0,0,1,.826.186,15.567,15.567,0,0,0,6.2.707c.176-.007.334-.046.5-.063a5.3,5.3,0,0,1-2.188-1.945,5,5,0,0,1,1.794-6.813c.1-.049.2-.094.3-.142.017-.024.026-.046.044-.069a185.953,185.953,0,0,1,13.343-15.4c4.238-4.584,6.436-9.615,11.905-12.735,1.752-1,4.715-.944,6.061.779,3.067,3.926,7.17,7.324,10.98,10.514,2.067,1.731,4.518,3.314,5.107,6.167.653,3.165-.962,5.232-3.079,7.332a50.163,50.163,0,0,0-5.357,6,5.08,5.08,0,0,1,1.412,2.276c.1.3.16.607.239.911a15.277,15.277,0,0,1,7.029-3.016,6.545,6.545,0,0,1,.987-.07c-.03-4.561-.331-9.1-.143-13.733a5.079,5.079,0,0,1,.838-2.66c-.778-6.028-.154-12.26-.589-18.318a126.869,126.869,0,0,1,1.526-28.817c2.437-15.728,12.441-25.3,25.534-33.42,2.842-1.762,5.542-.292,6.743,2a4.361,4.361,0,0,1,.853,1.038c.069.118,3.466,1.35,3.984,1.74.178.135.316.283.477.423V99.2c-.143-.07-.3-.129-.432-.21a4.464,4.464,0,0,1-3.43-2.823h-.841v-53h.917c-1.586-2.91.843-7.37,4.521-7.466l.194-.082a5.33,5.33,0,0,1,.972-.175c2.565-9.2,2.464-19.271,8.37-26.909C125.6,5.338,104.961,2.595,81.8.459" transform="translate(33 61)" fill="#f9f9ff"/>
  <path id="Fill_3" data-name="Fill 3" d="M0,0C2.638,2.5,5.3,4.854,8,7A34.855,34.855,0,0,1,7.125.153C4.757.173,2.374.1,0,0" transform="translate(119 376)" fill="#f9f9ff"/>
  <path id="Fill_5" data-name="Fill 5" d="M178.6,221.2c-3.013-31.6-19.585-60.182-36.157-75.227s-42.183-55.668-18.078-66.2c0,0,30.13-4.514,28.624-24.073C152.005,42.888,134.857,19.114,77.45,0A4.741,4.741,0,0,1,77.6.581c1.332,9,3.494,17.958,3.9,27.074.42,9.384-1.861,18.119-4,27.167-3.084,13.065,2.96,29.218-4.553,41.011A5.123,5.123,0,0,1,66.1,97.627a13.409,13.409,0,0,1-2.558-1.783v4.738H61.659V136h1.13v7.66c1.82-4.554,5.526-8.911,8.324-12.464a35.738,35.738,0,0,1,7.028-6.819c1.7-1.247,5.636-2.941,6.5-4.881,1.582-3.543,5.339-3.081,7.507-.888a4.291,4.291,0,0,1,3.4,3.462c.258,1.115,5.1,3.9,6.1,5.216a15.491,15.491,0,0,1,2.953,8.057c.637,5.788,1.127,12.692.315,18.474-.5,3.59-1.8,6.414-4.147,8.233v137.38H61.471v.376H6.106v-.193a5.392,5.392,0,0,1-1.624.987c1.262,5.415-.13,11.516-4.482,14.88a51.637,51.637,0,0,0,8.554.5C118.342,312.973,184.786,286.034,178.6,221.2" transform="translate(165 85)" fill="#f9f9ff"/>
  <path id="Fill_7" data-name="Fill 7" d="M6.7,2.373A12.7,12.7,0,0,1,6.21,0C4.145.068,2.076.124,0,.2Q3.478,2.817,7,5q-.194-1.3-.3-2.627" transform="translate(134 387)" fill="#f9f9ff"/>
  <path id="Fill_9" data-name="Fill 9" d="M31.816,49.646S34.846,22.566,0,0C0,0,9.09,24.823,9.09,50.022v65.892a5.541,5.541,0,0,1,.758-.059c.411.014.82.02,1.23.021q.875.034-.236-.09c1.747-1.325,4.657-.651,6.1.781,1.715,1.7,1.692,3.984.788,6.06.455-1.046.223-.316.071.221V135.72a4.323,4.323,0,0,1,0,1.969V141.1H15.285a4.682,4.682,0,0,1-5.968-.665c-.088-.086-.145-.191-.227-.281v12.166H4.545V340h10.1V206.246a9.934,9.934,0,0,1-.179-3.259,5.479,5.479,0,0,1-.059-1.143c.694-13.63,6.436-31.3,18.4-39.169.112-.074.224-.113.336-.176l.185-7.543,1.515-39.115a11.475,11.475,0,0,0,3.03-7.522V60.177a9.464,9.464,0,0,0-6.06-10.531" transform="translate(211 45)" fill="#f6f3fe"/>
  <path id="Clip_12-2" data-name="Clip 12" d="M0,434H362V0H0Z" fill="none"/>
  <g id="Group-2" data-name="Group" clip-path="url(#clip-path)">
    <path id="Fill_11" data-name="Fill 11" d="M51.8,202H5.163l-3.9-18.767H0V45.855c0-18.1,7.871-29.57,14.474-36.007A45.707,45.707,0,0,1,28.985.11l.3-.11.285.135A48.307,48.307,0,0,1,45.926,12.5a46.087,46.087,0,0,1,8.089,13.993,46.811,46.811,0,0,1,2.975,16.4V183.233H54.75L51.8,202h0Zm-3.8-18.1h0v16.6h1.5v-16.58Zm-3-.042V200.5h1.5V183.875Zm-3-.043V200.5h1.5V183.831Zm-3-.043V200.5h1.5V183.79l-1.5-.023Zm-3-.044V200.5h1.5V183.746l-1.5-.023Zm-3-.041V200.5h1.5V183.7Zm-3-.044h0V200.5h1.5V183.659Zm-3-.043h0v16.9h1.5V183.615Zm-3-.044V200.5h1.5V183.573Zm-3-.041V200.5h1.5V183.53l-1.5-.021Zm-3-.044h0V200.5h1.5V183.487Zm-3-.043V200.5h1.5V183.443Zm-3-.043V200.5h1.5V183.4Zm-3-.044H9V200.5h1.5V183.357Zm-6.2-.088L6.385,200.5H7.5V183.314Zm48.191.694v13.5l2.125-13.467ZM1.5,63.122V181.727l.366,0H55.49V63.122Zm0-16.515V61.62H55.49V46.607ZM29.218,1.632a46.684,46.684,0,0,0-14.8,10.512A45.6,45.6,0,0,0,5.6,25.34,50.52,50.52,0,0,0,1.517,45.1H55.49V42.853a44.588,44.588,0,0,0-2.86-15.784,44.63,44.63,0,0,0-7.751-13.477A46.676,46.676,0,0,0,29.218,1.632Z" transform="translate(225 201)" fill="#ded7fe"/>
    <path id="Fill_13" data-name="Fill 13" d="M0,0S7.5,7.5,7.5,25.5V180h19.49V40.5S28.486,13.5,0,0" transform="translate(253 203)" fill="#f6f3fe"/>
    <path id="Fill_14" data-name="Fill 14" d="M51.8,202H5.163l-3.9-18.767H0V172.823c.385,0,.772-.01,1.147-.018L1.5,172.8v8.929l.366,0H13.135a10.345,10.345,0,0,0-.066,1.661L12,183.379V200.5h1.5V185.9c.021.076.04.155.059.231v.005c.029.12.059.245.1.364A22.482,22.482,0,0,0,15,192.87V200.5h1.5v-5.019a9.847,9.847,0,0,0,1.5,1.514V200.5h1.5v-2.476a13.252,13.252,0,0,0,1.5.755V200.5h1.5v-1.142c.442.143.932.279,1.5.414v.728h1.5v-.438c.59.1,1.053.165,1.5.211v.228h1.5v-.124c.136,0,.285.007.455.007.362,0,.725-.012,1.045-.022v.139h1.5v-.241c.445-.049,1-.108,1.5-.209v.45h1.5v-.851c.07-.023.145-.041.217-.059s.163-.04.238-.066c.313-.113.607-.251.891-.384l.022-.01.132-.062V200.5h1.5v-2.27a11.368,11.368,0,0,0,1.5-1.165V200.5h1.5v-5.182a13.1,13.1,0,0,0,1.5-2.761V200.5h1.5V183.831l-.677-.009a16.854,16.854,0,0,0-.511-2.091H55.49V63.122H1.5V98.7a6.029,6.029,0,0,0-.8-.053,6.738,6.738,0,0,0-.7.037V45.855c0-18.1,7.871-29.57,14.474-36.007A45.707,45.707,0,0,1,28.985.11l.3-.11.285.135A48.307,48.307,0,0,1,45.926,12.5a46.087,46.087,0,0,1,8.089,13.993,46.811,46.811,0,0,1,2.975,16.4V183.233H54.75L51.8,202h0Zm-3.8-18.1h0v16.6h1.5v-16.58Zm-3-.042V200.5h1.5V183.875ZM9,183.334H9V200.5h1.5V183.357Zm-6.2-.088L6.385,200.5H7.5V183.314Zm48.191.694v13.509l2.125-13.478ZM1.5,46.607V61.62H55.49V46.607ZM29.218,1.632a46.721,46.721,0,0,0-14.8,10.512A45.6,45.6,0,0,0,5.6,25.34,50.52,50.52,0,0,0,1.517,45.1H55.49V42.853a44.49,44.49,0,0,0-2.86-15.784,44.634,44.634,0,0,0-7.751-13.477A46.707,46.707,0,0,0,29.218,1.632Z" transform="translate(127 203)" fill="#ded7fe"/>
    <path id="Fill_15" data-name="Fill 15" d="M0,0S7.5,7.5,7.5,25.5v85.354a5.092,5.092,0,0,1,4.232,4.646c.511,5.877,2.747,11.527,3.81,17.324a87.949,87.949,0,0,0,2.817,12.617c1.55,4.563,4.309,11.251.108,15.318-.037.038-.075.066-.114.1a4.045,4.045,0,0,1,1.612,1.717,5.329,5.329,0,0,1-.78,6.04c-.876,1.105-6.249,3.686-6.3,2.42a31.314,31.314,0,0,0-.642,5.449A15.555,15.555,0,0,1,13.805,180H26.986V40.5S28.486,13.5,0,0" transform="translate(156 205)" fill="#f6f3fe"/>
    <path id="Fill_16" data-name="Fill 16" d="M7.563,167h0a5.952,5.952,0,0,0-2.267-1.058V118.688A7.126,7.126,0,0,1,0,111.866V59.52a6.99,6.99,0,0,1,1.786-4.662,7.251,7.251,0,0,1,4.4-2.343,80.963,80.963,0,0,1,8.255-24.3A63.525,63.525,0,0,1,26.447,12.141,53.4,53.4,0,0,1,46.139.131L46.52,0l.38.136c.336.121,33.7,12.576,38.487,52.77a7.215,7.215,0,0,1,3.316,2.56A6.953,6.953,0,0,1,90,59.52v52.346a7.077,7.077,0,0,1-3.831,6.244c0,.034.009.068.014.1a2.765,2.765,0,0,1,.035.383v44.159a4.361,4.361,0,0,0-2.269,1.66v-8.053H7.563V167Zm0-37.311v24.428H83.949v-35.26l-.032,0h-.01l-.021,0V116.6a4.962,4.962,0,0,0,2.746-1.682,4.819,4.819,0,0,0,1.1-3.055V59.52a4.894,4.894,0,0,0-4.916-4.861H7.185A4.894,4.894,0,0,0,2.269,59.52v52.346a4.894,4.894,0,0,0,4.916,4.861h.257a.716.716,0,0,0,.03.109.714.714,0,0,1,.028.1v12.757ZM46.489,2.387A51.186,51.186,0,0,0,28.074,13.705,61.024,61.024,0,0,0,16.682,28.813,78.243,78.243,0,0,0,8.5,52.415H83.049a65.749,65.749,0,0,0-7.176-22.806A61.523,61.523,0,0,0,64.359,14.438,63.412,63.412,0,0,0,53.05,5.748,48.654,48.654,0,0,0,46.489,2.387Z" transform="translate(160 43)" fill="#ded7fe"/>
    <path id="Fill_17" data-name="Fill 17" d="M0,0A4.732,4.732,0,0,1,.052,2H44a4.555,4.555,0,0,1-.414-2Z" transform="translate(181 384)" fill="#ded7fe"/>
    <path id="Fill_18" data-name="Fill 18" d="M27,13.5A13.5,13.5,0,1,1,13.5,0,13.5,13.5,0,0,1,27,13.5" transform="translate(193 104)" fill="#fff"/>
    <path id="Stroke_19" data-name="Stroke 19" d="M27,13.5A13.5,13.5,0,1,1,13.5,0,13.5,13.5,0,0,1,27,13.5Z" transform="translate(193 104)" fill="none" stroke="#ded7fe" stroke-miterlimit="10" stroke-width="2"/>
    <path id="Fill_20" data-name="Fill 20" d="M3.059,0,0,17H26V0Z" transform="translate(154 105)" fill="#fff"/>
    <path id="Stroke_21" data-name="Stroke 21" d="M3.059,0,0,17H26V0Z" transform="translate(154 105)" fill="none" stroke="#ded7fe" stroke-miterlimit="10" stroke-width="2"/>
    <path id="Fill_22" data-name="Fill 22" d="M0,0H21.667L26,17H0Z" transform="translate(232 105)" fill="#fff"/>
    <path id="Stroke_23" data-name="Stroke 23" d="M0,0H21.667L26,17H0Z" transform="translate(232 105)" fill="none" stroke="#ded7fe" stroke-miterlimit="10" stroke-width="2"/>
    <path id="Fill_24" data-name="Fill 24" d="M40.8,28H3.2A3.219,3.219,0,0,1,0,24.769V3.231A3.219,3.219,0,0,1,3.2,0H40.8A3.219,3.219,0,0,1,44,3.231V24.769A3.219,3.219,0,0,1,40.8,28ZM15.5,15.018,2.673,26.36a1.673,1.673,0,0,0,.526.107H40.8a1.65,1.65,0,0,0,.589-.122L29.249,14.357,22,20.767ZM1.807,2.335h0a1.655,1.655,0,0,0-.29.9V24.769a1.623,1.623,0,0,0,.094.477l0,.011L14.347,14,2.281,3.331a1.439,1.439,0,0,1-.474-1Zm40.034-.4h0a1.608,1.608,0,0,1-.463,1.7L30.395,13.343,42.4,25.2l.012-.038.011-.037v0a1.27,1.27,0,0,0,.063-.347V3.231a1.669,1.669,0,0,0-.642-1.3Zm-38.4.392L22,18.729,40.378,2.48l-.059-.159Z" transform="translate(186 159)" fill="#858bee"/>
    <path id="Fill_25" data-name="Fill 25" d="M0,79H48L1.86,1.731,0,0Z" transform="translate(281 295)" fill="#cacaef"/>
    <path id="Stroke_26" data-name="Stroke 26" d="M0,79H48L1.86,1.731,0,0Z" transform="translate(281 295)" fill="none" stroke="#ded7fe" stroke-miterlimit="10" stroke-width="2"/>
    <path id="Fill_27" data-name="Fill 27" d="M19.141,33.252.374,0,0,.243v24.01L8.526,39.77a5.986,5.986,0,0,0,8.9,2.027,6.662,6.662,0,0,0,1.715-8.544" transform="translate(281 316)" fill="#fff"/>
    <path id="Stroke_28" data-name="Stroke 28" d="M19.141,33.252.374,0,0,.243v24.01L8.526,39.77a5.986,5.986,0,0,0,8.9,2.027A6.662,6.662,0,0,0,19.141,33.252Z" transform="translate(281 316)" fill="none" stroke="#ded7fe" stroke-miterlimit="10" stroke-width="2"/>
    <path id="Fill_29" data-name="Fill 29" d="M0,43.75,3.429,0,8,45s-5.333-1-8-1.25" transform="translate(203)" fill="#ded7fe"/>
    <path id="Fill_30" data-name="Fill 30" d="M0,0H345" transform="translate(17 403)" fill="#cacaef"/>
    <path id="Fill_31" data-name="Fill 31" d="M144.38,0a15.975,15.975,0,0,1-10.21,0H0V2H345V0Z" transform="translate(17 403)" fill="#ded7fe"/>
    <path id="Fill_32" data-name="Fill 32" d="M0,0H84" transform="translate(41 412)" fill="#cacaef"/>
    <path id="Fill_33" data-name="Fill 33" d="M0,2H84V0H0Z" transform="translate(41 412)" fill="#ded7fe"/>
    <path id="Fill_34" data-name="Fill 34" d="M0,0H191" transform="translate(135 412)" fill="#cacaef"/>
    <path id="Fill_35" data-name="Fill 35" d="M0,2H191V0H0Z" transform="translate(135 412)" fill="#ded7fe"/>
    <path id="Fill_36" data-name="Fill 36" d="M0,0H30" transform="translate(36 433)" fill="#cacaef"/>
    <path id="Fill_37" data-name="Fill 37" d="M0,2H30V0H0Z" transform="translate(36 432)" fill="#ded7fe"/>
    <path id="Fill_38" data-name="Fill 38" d="M16.408,7.037A1.986,1.986,0,0,1,17,8.5a2.047,2.047,0,0,1-.592,1.481,1.961,1.961,0,0,1-1.463.609H10.555v4.355a2.02,2.02,0,0,1-.574,1.463A1.971,1.971,0,0,1,8.5,17a2.024,2.024,0,0,1-2.055-2.055V10.59H2.055A1.956,1.956,0,0,1,.592,9.981,2.047,2.047,0,0,1,0,8.5,1.986,1.986,0,0,1,.592,7.037a1.988,1.988,0,0,1,1.463-.592H6.445V2.055A1.986,1.986,0,0,1,7.037.592,1.988,1.988,0,0,1,8.5,0a2.024,2.024,0,0,1,2.055,2.055V6.445h4.389a1.992,1.992,0,0,1,1.463.592" transform="translate(89 75)" fill="#ded7fe"/>
    <path id="Fill_39" data-name="Fill 39" d="M16.408,7.037A1.986,1.986,0,0,1,17,8.5a2.047,2.047,0,0,1-.592,1.481,1.961,1.961,0,0,1-1.463.609H10.555v4.355a2.02,2.02,0,0,1-.574,1.463A1.971,1.971,0,0,1,8.5,17a2.024,2.024,0,0,1-2.055-2.055V10.59H2.055A1.956,1.956,0,0,1,.592,9.981,2.047,2.047,0,0,1,0,8.5,1.986,1.986,0,0,1,.592,7.037a1.988,1.988,0,0,1,1.463-.592H6.445V2.055A1.986,1.986,0,0,1,7.037.592,1.988,1.988,0,0,1,8.5,0a2.024,2.024,0,0,1,2.055,2.055V6.445h4.389a1.992,1.992,0,0,1,1.463.592" transform="translate(73 142)" fill="#ded7fe"/>
    <path id="Fill_40" data-name="Fill 40" d="M16.408,7.037A1.986,1.986,0,0,1,17,8.5a2.047,2.047,0,0,1-.592,1.481,1.961,1.961,0,0,1-1.463.609H10.555v4.355a2.02,2.02,0,0,1-.574,1.463A1.971,1.971,0,0,1,8.5,17a2.024,2.024,0,0,1-2.055-2.055V10.59H2.055A1.956,1.956,0,0,1,.592,9.981,2.047,2.047,0,0,1,0,8.5,1.986,1.986,0,0,1,.592,7.037a1.988,1.988,0,0,1,1.463-.592H6.445V2.055A1.986,1.986,0,0,1,7.037.592,1.988,1.988,0,0,1,8.5,0a2.024,2.024,0,0,1,2.055,2.055V6.445h4.389a1.992,1.992,0,0,1,1.463.592" transform="translate(296 199)" fill="#ded7fe"/>
    <path id="Fill_41" data-name="Fill 41" d="M10.616,4.553A1.285,1.285,0,0,1,11,5.5a1.32,1.32,0,0,1-.384.959,1.271,1.271,0,0,1-.946.395H6.83V9.669a1.3,1.3,0,0,1-.373.947A1.271,1.271,0,0,1,5.5,11,1.309,1.309,0,0,1,4.171,9.669V6.853H1.33a1.266,1.266,0,0,1-.946-.395A1.32,1.32,0,0,1,0,5.5a1.285,1.285,0,0,1,.384-.947A1.285,1.285,0,0,1,1.33,4.17H4.171V1.329A1.29,1.29,0,0,1,4.554.383,1.285,1.285,0,0,1,5.5,0a1.285,1.285,0,0,1,.946.383,1.291,1.291,0,0,1,.384.947V4.17H9.67a1.289,1.289,0,0,1,.946.383" transform="translate(308 267)" fill="#ded7fe"/>
    <path id="Fill_42" data-name="Fill 42" d="M10.616,4.553A1.285,1.285,0,0,1,11,5.5a1.32,1.32,0,0,1-.384.959,1.271,1.271,0,0,1-.946.395H6.83V9.669a1.3,1.3,0,0,1-.373.947A1.271,1.271,0,0,1,5.5,11,1.309,1.309,0,0,1,4.171,9.669V6.853H1.33a1.266,1.266,0,0,1-.946-.395A1.32,1.32,0,0,1,0,5.5a1.285,1.285,0,0,1,.384-.947A1.285,1.285,0,0,1,1.33,4.17H4.171V1.329A1.29,1.29,0,0,1,4.554.383,1.285,1.285,0,0,1,5.5,0a1.285,1.285,0,0,1,.946.383,1.291,1.291,0,0,1,.384.947V4.17H9.67a1.289,1.289,0,0,1,.946.383" transform="translate(55 255)" fill="#ded7fe"/>
    <path id="Fill_43" data-name="Fill 43" d="M5,2.5A2.5,2.5,0,1,1,2.5,0,2.5,2.5,0,0,1,5,2.5" transform="translate(276 82)" fill="#ded7fe"/>
    <path id="Fill_44" data-name="Fill 44" d="M5,2.5A2.5,2.5,0,1,1,2.5,0,2.5,2.5,0,0,1,5,2.5" transform="translate(144 45)" fill="#ded7fe"/>
    <path id="Fill_45" data-name="Fill 45" d="M5,2.5A2.5,2.5,0,1,1,2.5,0,2.5,2.5,0,0,1,5,2.5" transform="translate(98 186)" fill="#ded7fe"/>
    <path id="Fill_46" data-name="Fill 46" d="M5,2.5A2.5,2.5,0,1,1,2.5,0,2.5,2.5,0,0,1,5,2.5" transform="translate(62 207)" fill="#ded7fe"/>
    <path id="Fill_47" data-name="Fill 47" d="M15.5,31A15.5,15.5,0,1,1,31,15.5,15.517,15.517,0,0,1,15.5,31Zm0-28.048A12.548,12.548,0,1,0,28.048,15.5,12.562,12.562,0,0,0,15.5,2.952Z" transform="translate(71 374)" fill="#858bee"/>
    <path id="Fill_48" data-name="Fill 48" d="M7,14a7,7,0,1,1,7-7A7.008,7.008,0,0,1,7,14ZM7,3.111A3.889,3.889,0,1,0,10.889,7,3.893,3.893,0,0,0,7,3.111Z" transform="translate(80 383)" fill="#858bee"/>
    <path id="Fill_49" data-name="Fill 49" d="M15.5,31A15.5,15.5,0,1,1,31,15.5,15.517,15.517,0,0,1,15.5,31Zm0-28.048A12.548,12.548,0,1,0,28.048,15.5,12.562,12.562,0,0,0,15.5,2.952Z" transform="translate(139 374)" fill="#858bee"/>
    <path id="Fill_50" data-name="Fill 50" d="M7,14a7,7,0,1,1,7-7A7.008,7.008,0,0,1,7,14ZM7,3.111A3.889,3.889,0,1,0,10.889,7,3.893,3.893,0,0,0,7,3.111Z" transform="translate(148 383)" fill="#858bee"/>
    <path id="Fill_51" data-name="Fill 51" d="M17.747,117h0l-2.494-1.666,4.446-6.672H0V62.132H.756l3.6-24.2a3.129,3.129,0,0,1,3.557-2.637l.232.034L26.8,38.106l-1.062-.92a3.14,3.14,0,0,1-.317-4.419l.153-.177L52.854,1.073,53,.9h.032a3.129,3.129,0,0,1,2.21-.9A3.1,3.1,0,0,1,57.27.755L77.646,18.414a3.144,3.144,0,0,1,.317,4.418L66.9,35.617l9.114-2.724.212-.065.016.011.012.007A3.135,3.135,0,0,1,79.907,35L84,48.7V44.121h30l12,40.526v24.016h-5.451l3.762,6.775-2.622,1.459-7.071-12.738H93.8l-2.712,4.071c0,.045,0,.091,0,.136,0,.1-.006.2,0,.3H90.8L85.249,117l-2.5-1.665,4.446-6.672H53.049l3.762,6.775L54.189,116.9l-7.071-12.738H26.3L17.748,117ZM87,47.122h0V105.66h2.2l3-4.5h24.184l2.5,4.5H123v-6a6,6,0,0,1,0-12.008V85.082l-11.24-37.96ZM24.7,101.157H48.882l2.5,4.5H84V65.134H3V105.66H21.7l3-4.5ZM123,90.318a3.335,3.335,0,0,0,0,6.67ZM53.507,56.542l-.386.1L50.87,62.132H83.6L66.715,53.006l-.439.117-3,5.558a3,3,0,0,1-4.162,1.162l-5.608-3.3Zm-17.1-10.074-.069.022a1.472,1.472,0,0,0-.987,1.83l4.126,13.813H49.07l2.705-6.612L36.407,46.468ZM18.561,53.257,8.91,62.132H37.15l-4.737-6.4-.446-.079-5.073,3.761a2.971,2.971,0,0,1-1.783.59A3,3,0,0,1,22.632,58.7l-3.677-5.37-.4-.073h0ZM7.452,36.921A1.48,1.48,0,0,0,6,38.175L2.436,62.132h4.03L17.818,51.669,7.74,36.95l-.072-.013A1.464,1.464,0,0,0,7.452,36.921Zm69.452-2.5a1.461,1.461,0,0,0-.418.061l-.183.056-9.09,16.848L84,60.453l0-5.945L78.315,35.472A1.483,1.483,0,0,0,76.9,34.421Zm-41.793,18.9-1.559,1.156,3.189,4.307ZM74.052,35.211h0L38.579,45.82,58.464,57.532a3.008,3.008,0,0,0,4.176-1.165L74.052,35.211ZM9.981,37.282,23.024,56.329a3.008,3.008,0,0,0,4.275.718L34.6,51.63l-.846-2.836a3.137,3.137,0,0,1,2.1-3.9l.225-.068,8.172-2.444ZM77,21.2l-.293.337-20.9,1.5-.308.336.453,6.3a3,3,0,0,1-2.889,3.216l-6.5.225-.27.3,1.4,7.807.33.049L63.933,36.5,76.707,21.744A1.451,1.451,0,0,0,77,21.2ZM44.546,33.183,26.724,33.8l-.048.055a1.474,1.474,0,0,0,.149,2.075l3.037,2.632,16.085,2.394Zm7.9-29.1-24.238,28,23.059-.8a3.011,3.011,0,0,0,2.9-3.226Zm2.776-2.429a1.469,1.469,0,0,0-1.112.508l-.126.144,1.369,19.1,21.359-1.534-.021-.027-.014-.02-.005-.008-.013-.02,0-.006,0-.007,0,0a.488.488,0,0,0-.088-.105L56.183,2.012A1.469,1.469,0,0,0,55.221,1.653Z" transform="translate(50 268)" fill="#858bee"/>
    <path id="Fill_52" data-name="Fill 52" d="M29,31H0V0H19.842L29,31ZM3.053,2.952v25.1h21.9l-7.414-25.1Z" transform="translate(139 320)" fill="#858bee"/>
    <path id="Fill_53" data-name="Fill 53" d="M0,7.009.991,8,8,.991,7.009,0Z" transform="translate(146 324)" fill="#858bee"/>
    <path id="Fill_54" data-name="Fill 54" d="M4,1.045,2.955,0,0,2.955,1.045,4Z" transform="translate(146 324)" fill="#858bee"/>
    <path id="Fill_55" data-name="Fill 55" d="M0,2H58V0H0Z" transform="translate(66 345)" fill="#858bee"/>
    <path id="Fill_56" data-name="Fill 56" d="M0,2H58V0H0Z" transform="translate(66 359)" fill="#858bee"/>
    <path id="Fill_57" data-name="Fill 57" d="M0,2H41V0H0Z" transform="translate(0 353)" fill="#858bee"/>
    <path id="Fill_58" data-name="Fill 58" d="M0,2H12V0H0Z" transform="translate(30 312)" fill="#858bee"/>
    <path id="Fill_59" data-name="Fill 59" d="M0,2H41V0H0Z" transform="translate(0 330)" fill="#858bee"/>
    <path id="Fill_60" data-name="Fill 60" d="M0,2H7V0H0Z" transform="translate(27 344)" fill="#858bee"/>
  </g>
</svg>
