<svg xmlns="http://www.w3.org/2000/svg" width="155.492" height="160.484" viewBox="0 0 155.492 160.484">
  <g id="Group_3" data-name="Group 3" transform="translate(-301.407 -39.016)">
    <path id="Path_2" data-name="Path 2" d="M0,37.2S6.155-9.3,58.127,2.325s86.849,23.251,82.746,38.3-36.928,8.89-8.89,39.663,37.612,71.121-8.89,79.327C1.368,171.92,0,37.2,0,37.2Z" transform="translate(301.407 38.557)" fill="#f9f9ff"/>
    <g id="Group_3-2" data-name="Group 3" transform="translate(311 44)">
      <path id="Fill_38" data-name="Fill 38" d="M7.94,3.408a.962.962,0,0,1,.287.708.992.992,0,0,1-.287.717.949.949,0,0,1-.708.295H5.108V7.237a.979.979,0,0,1-.278.708.953.953,0,0,1-.717.287.98.98,0,0,1-.995-1V5.128H.995a.946.946,0,0,1-.708-.295A.992.992,0,0,1,0,4.116a.962.962,0,0,1,.287-.708.961.961,0,0,1,.708-.287H3.119V1A.962.962,0,0,1,3.405.287.961.961,0,0,1,4.113,0a.98.98,0,0,1,.995,1V3.121H7.232a.964.964,0,0,1,.708.287" transform="translate(16.454 16.465)" fill="#e46b9d"/>
      <path id="Fill_39" data-name="Fill 39" d="M7.94,3.408a.962.962,0,0,1,.287.708.992.992,0,0,1-.287.717.949.949,0,0,1-.708.295H5.108V7.237a.979.979,0,0,1-.278.708.953.953,0,0,1-.717.287.98.98,0,0,1-.995-1V5.128H.995a.946.946,0,0,1-.708-.295A.992.992,0,0,1,0,4.116a.962.962,0,0,1,.287-.708.961.961,0,0,1,.708-.287H3.119V1A.962.962,0,0,1,3.405.287.961.961,0,0,1,4.113,0a.98.98,0,0,1,.995,1V3.121H7.232a.964.964,0,0,1,.708.287" transform="translate(9.598 49.395)" fill="#3bc6d1"/>
      <path id="Fill_40" data-name="Fill 40" d="M7.94,3.408a.962.962,0,0,1,.287.708.992.992,0,0,1-.287.717.949.949,0,0,1-.708.295H5.108V7.237a.979.979,0,0,1-.278.708.953.953,0,0,1-.717.287.98.98,0,0,1-.995-1V5.128H.995a.946.946,0,0,1-.708-.295A.992.992,0,0,1,0,4.116a.962.962,0,0,1,.287-.708.961.961,0,0,1,.708-.287H3.119V1A.962.962,0,0,1,3.405.287.961.961,0,0,1,4.113,0a.98.98,0,0,1,.995,1V3.121H7.232a.964.964,0,0,1,.708.287" transform="translate(122.031 78.209)" fill="#8bee4e"/>
      <path id="Fill_41" data-name="Fill 41" d="M5.293,2.272a.641.641,0,0,1,.191.472.659.659,0,0,1-.191.478.633.633,0,0,1-.472.2H3.406V4.824a.65.65,0,0,1-.186.472.633.633,0,0,1-.477.192.653.653,0,0,1-.663-.664V3.419H.663a.631.631,0,0,1-.472-.2A.659.659,0,0,1,0,2.744a.641.641,0,0,1,.191-.472.64.64,0,0,1,.472-.191H2.08V.663A.644.644,0,0,1,2.27.191.64.64,0,0,1,2.742,0a.64.64,0,0,1,.472.191.644.644,0,0,1,.191.472V2.081H4.821a.643.643,0,0,1,.472.191" transform="translate(127.515 112.512)" fill="#ded7fe"/>
      <path id="Fill_42" data-name="Fill 42" d="M5.293,2.272a.641.641,0,0,1,.191.472.659.659,0,0,1-.191.478.633.633,0,0,1-.472.2H3.406V4.824a.65.65,0,0,1-.186.472.633.633,0,0,1-.477.192.653.653,0,0,1-.663-.664V3.419H.663a.631.631,0,0,1-.472-.2A.659.659,0,0,1,0,2.744a.641.641,0,0,1,.191-.472.64.64,0,0,1,.472-.191H2.08V.663A.644.644,0,0,1,2.27.191.64.64,0,0,1,2.742,0a.64.64,0,0,1,.472.191.644.644,0,0,1,.191.472V2.081H4.821a.643.643,0,0,1,.472.191" transform="translate(0 105.651)" fill="#eccf2b"/>
      <path id="Fill_43" data-name="Fill 43" d="M2.742,1.372A1.371,1.371,0,1,1,1.371,0,1.371,1.371,0,0,1,2.742,1.372" transform="translate(112.433 19.209)" fill="#ded7fe"/>
      <path id="Fill_44" data-name="Fill 44" d="M2.742,1.372A1.371,1.371,0,1,1,1.371,0,1.371,1.371,0,0,1,2.742,1.372" transform="translate(45.247)" fill="#ded7fe"/>
      <path id="Fill_45" data-name="Fill 45" d="M2.742,1.372A1.371,1.371,0,1,1,1.371,0,1.371,1.371,0,0,1,2.742,1.372" transform="translate(21.938 71.349)" fill="#ded7fe"/>
      <path id="Fill_46" data-name="Fill 46" d="M2.742,1.372A1.371,1.371,0,1,1,1.371,0,1.371,1.371,0,0,1,2.742,1.372" transform="translate(2.742 80.953)" fill="#ded7fe"/>
    </g>
    <g id="Cactus" transform="translate(326 71)">
      <circle id="Oval_9" data-name="Oval 9" cx="42.5" cy="42.5" r="42.5" transform="translate(12 0)" fill="#fff"/>
      <path id="Path_7" data-name="Path 7" d="M0,0V59a6,6,0,0,0,6,6H17" transform="translate(0 33)" fill="none" stroke="#042de0" stroke-linecap="round" stroke-miterlimit="10" stroke-width="3"/>
      <path id="Line" d="M5,73V0" transform="translate(12 50)" fill="none" stroke="#042de0" stroke-linecap="round" stroke-linejoin="round" stroke-miterlimit="10" stroke-width="3"/>
      <path id="Path_7-2" data-name="Path 7" d="M0,0V59a6,6,0,0,1-6,6H-17" transform="translate(35 10)" fill="none" stroke="#042de0" stroke-linecap="round" stroke-miterlimit="10" stroke-width="3"/>
    </g>
    <g id="Cactus_Copy" data-name="Cactus Copy" transform="translate(430 132)">
      <path id="Path_7-3" data-name="Path 7" d="M0,0V32a6,6,0,0,0,6,6h4" transform="translate(0 13)" fill="none" stroke="#042de0" stroke-linecap="round" stroke-miterlimit="10" stroke-width="3"/>
      <path id="Line-2" data-name="Line" d="M3,42V0" transform="translate(7 23)" fill="none" stroke="#042de0" stroke-linecap="round" stroke-linejoin="round" stroke-miterlimit="10" stroke-width="3"/>
      <path id="Path_7-4" data-name="Path 7" d="M0,0V32a6,6,0,0,1-6,6h-4" transform="translate(20)" fill="none" stroke="#042de0" stroke-linecap="round" stroke-miterlimit="10" stroke-width="3"/>
    </g>
    <g id="Group_2" data-name="Group 2" transform="translate(312 180)">
      <path id="Oval_4" data-name="Oval 4" d="M37,18A18.255,18.255,0,0,0,18.5,0,18.255,18.255,0,0,0,0,18Z" transform="translate(13)" fill="#ced9e8"/>
      <path id="Oval_4-2" data-name="Oval 4" d="M37,18A18.255,18.255,0,0,0,18.5,0,18.255,18.255,0,0,0,0,18Z" transform="translate(45)" fill="#ced9e8"/>
      <path id="Oval_4-3" data-name="Oval 4" d="M37,18A18.255,18.255,0,0,0,18.5,0,18.255,18.255,0,0,0,0,18Z" transform="translate(88)" fill="#95a6bc"/>
      <path id="Oval_4-4" data-name="Oval 4" d="M27,13A13.257,13.257,0,0,0,13.5,0,13.257,13.257,0,0,0,0,13Z" transform="translate(69 5)" fill="#ced9e8"/>
      <path id="Oval_4-5" data-name="Oval 4" d="M27,13A13.257,13.257,0,0,0,13.5,0,13.257,13.257,0,0,0,0,13Z" transform="translate(29 5)" fill="#95a6bc"/>
      <path id="Line-3" data-name="Line" d="M0,2.5H141.434" transform="translate(0 16)" fill="none" stroke="#7f8fa4" stroke-linecap="square" stroke-miterlimit="10" stroke-width="2"/>
    </g>
  </g>
</svg>
