<?xml version="1.0" encoding="UTF-8"?>
<svg width="131px" height="120px" viewBox="0 0 131 120" version="1.1" xmlns="http://www.w3.org/2000/svg" xmlns:xlink="http://www.w3.org/1999/xlink">
    <!-- Generator: Sketch 50.2 (55047) - http://www.bohemiancoding.com/sketch -->
    <title>Group 2</title>
    <desc>Created with Sketch.</desc>
    <defs></defs>
    <g id="Page-1" stroke="none" stroke-width="1" fill="none" fill-rule="evenodd">
        <g id="Approve-Report-Popup" transform="translate(-640.000000, -268.000000)">
            <g id="Group-2" transform="translate(640.000000, 268.000000)">
                <path d="M33.3065614,61.9958537 L23.3065614,61.9958537 C24.4111309,61.9958537 25.3065614,61.1004232 25.3065614,59.9958537 C25.3065614,58.8912842 24.4111309,57.9958537 23.3065614,57.9958537 L33.3065614,57.9958537 C32.2019919,57.9958537 31.3065614,58.8912842 31.3065614,59.9958537 C31.3065614,61.1004232 32.2019919,61.9958537 33.3065614,61.9958537 Z" id="Combined-Shape-Copy-4" fill="#FFFFFF" transform="translate(28.306561, 59.995854) rotate(168.000000) translate(-28.306561, -59.995854) "></path>
                <path d="M57.2320508,45.330127 L47.2320508,45.330127 C48.3366203,45.330127 49.2320508,44.4346965 49.2320508,43.330127 C49.2320508,42.2255575 48.3366203,41.330127 47.2320508,41.330127 L57.2320508,41.330127 C56.1274813,41.330127 55.2320508,42.2255575 55.2320508,43.330127 C55.2320508,44.4346965 56.1274813,45.330127 57.2320508,45.330127 Z" id="Combined-Shape-Copy-5" fill="#FFFFFF" transform="translate(52.232051, 43.330127) rotate(120.000000) translate(-52.232051, -43.330127) "></path>
                <path d="M15.4836268,106.363851 C15.1032623,106.363851 14.7199028,106.217607 14.4316344,105.925118 C13.8551333,105.343114 13.8551333,104.394031 14.4375888,103.815034 L17.8223623,100.433513 C18.4018584,99.8574889 19.343856,99.8515088 19.9233521,100.439493 C20.4998532,101.021498 20.4998532,101.970581 19.9173977,102.549578 L16.5326242,105.931098 C16.2413965,106.217607 15.8639914,106.363851 15.4836268,106.363851 L15.4836268,106.363851 Z" id="Path" fill="#4677FF"></path>
                <path d="M23.4836268,98.6828453 C23.1032623,98.6828453 22.7199028,98.5366011 22.4316344,98.2441127 C21.8551333,97.6621082 21.8551333,96.7160329 22.4375888,96.1340284 L28.1373161,90.4335133 C28.7168121,89.8574889 29.6588098,89.8515088 30.2383059,90.4394935 C30.814807,91.021498 30.814807,91.9675733 30.2323515,92.5495778 L24.5326242,98.2500929 C24.2413965,98.5366011 23.8639914,98.6828453 23.4836268,98.6828453 L23.4836268,98.6828453 Z" id="Path" fill="#042DE0"></path>
                <path d="M93.4825544,53.1316826 C93.0962355,53.1316826 92.712876,52.9824662 92.4246432,52.6839978 C91.8511015,52.099021 91.8600152,51.15291 92.4424706,50.5739134 L96.6504045,46.4223906 C97.2388142,45.8523463 98.1838068,45.8582906 98.7513943,46.4462752 C99.324936,47.031252 99.3160224,47.977363 98.733567,48.5563596 L94.525633,52.7078824 C94.2344053,52.9914185 93.8570001,53.1316826 93.4825544,53.1316826 L93.4825544,53.1316826 Z" id="Path" fill="#3BC6D1"></path>
                <path d="M81.4865877,46.9592273 C81.1062232,46.9592273 80.7258231,46.8129832 80.4345953,46.5234669 C79.8551349,45.9414624 79.8551349,44.9953871 80.4345953,44.4133826 L93.3317618,31.4365034 C93.9112222,30.8544989 94.8532555,30.8544989 95.4327516,31.4365034 C96.0122477,32.018508 96.012212,32.9645832 95.4327516,33.5465878 L82.5355851,46.5234669 C82.2473525,46.8129831 81.8669523,46.9592273 81.4865877,46.9592273 L81.4865877,46.9592273 Z" id="Path" fill="#858BEE"></path>
                <path d="M71.3637841,4.5 C71.0876417,4.5 70.8637841,3.49264069 70.8637841,2.25 C70.8637841,1.00735931 71.0876417,0 71.3637841,0 C71.6399265,0 71.8637841,1.00735931 71.8637841,2.25 C71.8637841,3.49264069 71.6399265,4.5 71.3637841,4.5 Z M72.156158,4.88962902 C71.982376,4.67502609 72.624363,3.86710429 73.5900762,3.08508516 C74.5557894,2.30306604 75.4795328,1.84308433 75.6533148,2.05768726 C75.8270969,2.2722902 75.1851098,3.080212 74.2193966,3.86223112 C73.2536834,4.64425025 72.32994,5.10423196 72.156158,4.88962902 Z M72.3399672,5.71705316 C72.4020857,5.4479883 73.4339835,5.45647467 74.6447753,5.736008 C75.8555672,6.01554134 76.786751,6.46026804 76.7246325,6.72933291 C76.6625139,6.99839777 75.6306162,6.9899114 74.4198243,6.71037807 C73.2090324,6.43084474 72.2778487,5.98611803 72.3399672,5.71705316 Z M71.7875712,6.40586222 C72.0357663,6.28480937 72.6785655,7.0920852 73.2233033,8.20896325 C73.7680411,9.3258413 74.0084365,10.3293826 73.7602413,10.4504354 C73.5120462,10.5714883 72.8692471,9.76421245 72.3245092,8.64733439 C71.7797714,7.53045634 71.5393761,6.52691507 71.7875712,6.40586222 Z M70.939997,6.40586222 C71.1881922,6.52691507 70.9477968,7.53045634 70.403059,8.64733439 C69.8583212,9.76421245 69.215522,10.5714883 68.9673269,10.4504354 C68.7191317,10.3293826 68.9595271,9.3258413 69.5042649,8.20896325 C70.0490028,7.0920852 70.6918019,6.28480937 70.939997,6.40586222 Z M70.387601,5.71705316 C70.4497196,5.98611803 69.5185358,6.43084474 68.3077439,6.71037807 C67.096952,6.9899114 66.0650543,6.99839777 66.0029357,6.72933291 C65.9408172,6.46026804 66.872001,6.01554134 68.0827929,5.736008 C69.2935847,5.45647467 70.3254825,5.4479883 70.387601,5.71705316 Z M70.5714102,4.88962902 C70.3976282,5.10423196 69.4738848,4.64425025 68.5081716,3.86223112 C67.5424584,3.080212 66.9004713,2.2722902 67.0742534,2.05768726 C67.2480354,1.84308433 68.1717788,2.30306604 69.137492,3.08508516 C70.1032052,3.86710429 70.7451922,4.67502609 70.5714102,4.88962902 Z" id="Oval-3" fill="#FF8500"></path>
                <path d="M112.75,32.375 C112.75,28.8541847 109.895815,26 106.375,26 C102.854185,26 100,28.8541847 100,32.375 C100,35.8958153 102.854185,38.75 106.375,38.75 C109.895815,38.75 112.75,35.8958153 112.75,32.375 Z M101.821429,32.375 C101.821429,29.8601319 103.860132,27.8214286 106.375,27.8214286 C108.889868,27.8214286 110.928571,29.8601319 110.928571,32.375 C110.928571,34.8898681 108.889868,36.9285714 106.375,36.9285714 C103.860132,36.9285714 101.821429,34.8898681 101.821429,32.375 Z" id="Oval-4" fill="#042DE0" fill-rule="nonzero"></path>
                <path d="M7,54.5 C7,52.5670034 5.43299662,51 3.5,51 C1.56700338,51 0,52.5670034 0,54.5 C0,56.4329966 1.56700338,58 3.5,58 C5.43299662,58 7,56.4329966 7,54.5 Z M1,54.5 C1,53.1192881 2.11928813,52 3.5,52 C4.88071187,52 6,53.1192881 6,54.5 C6,55.8807119 4.88071187,57 3.5,57 C2.11928813,57 1,55.8807119 1,54.5 Z" id="Oval-4-Copy" fill="#042DE0" fill-rule="nonzero"></path>
                <path d="M126.097573,10.0975733 L126.097573,7.77082924 C126.097573,7.34511201 126.441299,7 126.871967,7 C127.299652,7 127.64636,7.35286347 127.64636,7.77082924 L127.64636,10.0975733 L129.973104,10.0975733 C130.398821,10.0975733 130.743933,10.4412993 130.743933,10.8719667 C130.743933,11.2996523 130.39107,11.64636 129.973104,11.64636 L127.64636,11.64636 L127.64636,13.9731041 C127.64636,14.3988213 127.302634,14.7439333 126.871967,14.7439333 C126.444281,14.7439333 126.097573,14.3910699 126.097573,13.9731041 L126.097573,11.64636 L123.770829,11.64636 C123.345112,11.64636 123,11.302634 123,10.8719667 C123,10.444281 123.352863,10.0975733 123.770829,10.0975733 L126.097573,10.0975733 Z" id="Combined-Shape" fill="#FF8500"></path>
                <path d="M29.8651927,18.5586933 L29.8651927,15.7830888 C29.8651927,15.3506008 30.2160135,15 30.6555703,15 C31.0920839,15 31.445948,15.3564407 31.445948,15.7830888 L31.445948,18.5586933 L33.2300722,16.4324569 C33.5080701,16.1011518 34.0021763,16.0580794 34.3388963,16.340621 C34.6732851,16.6212065 34.7152451,17.1217154 34.441001,17.4485468 L32.6568768,19.5747832 L35.3903136,19.0928045 C35.8162312,19.0177038 36.2224249,19.3023137 36.2987532,19.7351926 C36.374553,20.1650746 36.0849752,20.575458 35.6648089,20.6495446 L32.9313721,21.1315233 L35.3351161,22.5193255 C35.7096617,22.7355695 35.8378805,23.2146897 35.618102,23.5953571 C35.3998453,23.9733889 34.9142265,24.1016238 34.5447384,23.8882998 L32.1409944,22.5004976 L33.0903071,25.1087126 C33.2382267,25.5151184 33.0284755,25.9645632 32.6154272,26.1149004 C32.2052386,26.2641969 31.7508052,26.0502808 31.604883,25.6493628 L30.6555703,23.0411477 L29.7062577,25.6493628 C29.5583381,26.0557686 29.1087618,26.2652377 28.6957135,26.1149004 C28.2855249,25.965604 28.0749113,25.5096307 28.2208336,25.1087126 L29.1701462,22.5004976 L26.7664022,23.8882998 C26.3918566,24.1045438 25.912817,23.9760244 25.6930386,23.5953571 C25.4747818,23.2173253 25.6065365,22.7326496 25.9760246,22.5193255 L28.3797686,21.1315233 L25.6463317,20.6495446 C25.2204142,20.5744439 24.9360592,20.1680716 25.0123875,19.7351926 C25.0881873,19.3053107 25.5006607,19.0187179 25.920827,19.0928045 L28.6542638,19.5747832 L26.8701397,17.4485468 C26.5921417,17.1172418 26.6355243,16.6231627 26.9722443,16.340621 C27.3066331,16.0600355 27.8068244,16.1056255 28.0810685,16.4324569 L29.8651927,18.5586933 Z M30.258157,19.6349335 C30.2121021,19.7619838 30.1325435,19.8794037 30.0205141,19.9734075 C29.9095285,20.0665355 29.7802779,20.1237315 29.6470858,20.1466384 C29.6934721,20.2735682 29.7080028,20.4146563 29.6826078,20.5586785 C29.6574494,20.7013588 29.5952025,20.8282542 29.5078958,20.9314162 C29.6250186,20.9988335 29.7268394,21.0975731 29.7999614,21.2242241 C29.8724021,21.3496951 29.906285,21.4869141 29.9057154,21.6220604 C30.0387717,21.5984199 30.1802396,21.6086097 30.317664,21.6586281 C30.453808,21.7081805 30.5679665,21.7915168 30.6544005,21.8954111 C30.7411317,21.7917744 30.8560523,21.7086465 30.9934767,21.6586281 C31.1296207,21.6090758 31.2706387,21.5995354 31.403633,21.6235643 C31.4034566,21.4884243 31.4380572,21.3508751 31.5111792,21.2242241 C31.5836199,21.0987531 31.6855136,21.0008001 31.8028386,20.9337203 C31.7158372,20.8303104 31.6539279,20.7027007 31.6285329,20.5586785 C31.6033745,20.4159982 31.6184666,20.2754658 31.6652247,20.1486646 C31.5321071,20.1253715 31.4026559,20.0674114 31.2906265,19.9734075 C31.1796409,19.8802796 31.1008697,19.7629245 31.0551822,19.6357337 C30.9382357,19.7034564 30.8018143,19.742266 30.6555703,19.742266 C30.5106889,19.742266 30.3749123,19.7029999 30.258157,19.6349335 Z" id="Rectangle-6" fill="#DEA1F8"></path>
                <path d="M70.0002014,53 C51.7745273,53 37,67.7921573 37,86.0395795 C37,104.286598 51.7745273,119.078756 70.0002014,119.078756 C88.2254727,119.078756 103,104.286598 103,86.0395795 C103,67.7921573 88.2254727,53 70.0002014,53 L70.0002014,53 L70.0002014,53 Z" id="Shape-Copy" fill="#F9F9FF"></path>
                <path d="M91.0674,94.5792732 C84.6046295,109.220367 73.7592398,106.592932 70,119.514157 C88.2252713,119.514157 102.999799,104.722 102.999799,86.4749809 C102.999799,76.7711814 98.8215509,68.0445335 92.1680469,62 C87.109715,73.4112394 97.5301704,79.938179 91.0674,94.5792732 Z" id="Shape-Copy-2" fill="#858BEE" opacity="0.208928571"></path>
                <path d="M34.4611764,74.2870649 C35.4338747,71.1302121 36.8664062,68.1753411 38.6804606,65.5008558 C44.6164741,56.7493099 54.6376542,51 66.0002014,51 C84.2254727,51 99,65.7921573 99,84.0395795 C99,90.4833084 97.1575136,96.4961921 93.9712274,101.578949 M89.4605563,107.27499 C88.3880747,108.360367 87.2409914,109.371705 86.0276394,110.30066 M80.0215035,113.956758 C75.765997,115.959425 71.013659,117.078756 66.0002014,117.078756 C47.7745273,117.078756 33,102.286598 33,84.0395795" id="Shape" stroke="#042DE0" stroke-width="4" stroke-linecap="round" stroke-linejoin="round"></path>
                <path d="M85.5445031,74.7242026 L63.4326313,96.8624598 C62.8931774,97.4028446 62.1856417,97.6729292 61.4783211,97.6729292 C60.7707853,97.6729292 60.0635364,97.4028446 59.523724,96.8624598 L46.8094497,84.1329422 C45.7301834,83.0521727 45.7301834,81.2999965 46.8094497,80.2194423 C47.8889311,79.1386011 49.6390907,79.1386011 50.7185721,80.2194423 L61.4783211,90.9920306 L81.6356676,70.810631 C82.7148622,69.7297897 84.4653086,69.7297897 85.5445031,70.810631 C86.6240562,71.8911851 86.6240562,73.6433613 85.5445031,74.7242026 L85.5445031,74.7242026 L85.5445031,74.7242026 Z" id="Path" fill="#858BEE"></path>
            </g>
        </g>
    </g>
</svg>