<?xml version="1.0" encoding="UTF-8"?>
<svg width="25px" height="22px" viewBox="0 0 25 22" version="1.1" xmlns="http://www.w3.org/2000/svg" xmlns:xlink="http://www.w3.org/1999/xlink">
    <!-- Generator: Sketch 50.2 (55047) - http://www.bohemiancoding.com/sketch -->
    <title>login_icon</title>
    <desc>Created with Sketch.</desc>
    <defs></defs>
    <g id="Page-1" stroke="none" stroke-width="1" fill="none" fill-rule="evenodd">
        <g id="Lychees-Home" transform="translate(-1428.000000, -40.000000)" fill="#FFFFFF">
            <g id="Header-Full-Video" transform="translate(-12.000000, -2.000000)">
                <g id="login_icon" transform="translate(1440.000000, 42.000000)">
                    <path d="M13.7942075,13.300435 C13.7942075,13.8696649 14.4784404,14.1955318 14.967242,13.8719023 L17.6851715,12.0717337 C18.1051082,11.7936911 18.1047609,11.2072146 17.6852211,10.9287991 L14.9672917,9.1285839 C14.4748186,8.80243736 13.7942075,9.13455028 13.7942075,9.7000512 L13.7942075,10.8010813 L0.744216815,10.8010813 C0.333210675,10.8010813 0,11.1141298 0,11.5002664 C0,11.886403 0.333210675,12.1994515 0.744216815,12.1994515 L13.7942075,12.1994515 L13.7942075,13.300435 Z" id="Fill-1"></path>
                    <path d="M13.7989285,0 C9.66770804,0 6.03930201,2.20180356 4.09685398,5.49935251 C3.89795313,5.83703742 4.01543314,6.26913848 4.35928994,6.46446926 C4.70319468,6.65980004 5.14314532,6.5443345 5.34204617,6.20669668 C7.0316964,3.33842337 10.189607,1.41271054 13.7989285,1.41271054 C19.1820064,1.41271054 23.5614693,5.71356652 23.5614693,11.0000235 C23.5614693,16.2864806 19.1820064,20.5873365 13.7989285,20.5873365 C10.1874012,20.5873365 7.03049763,18.6597401 5.34199822,15.7932091 C5.14309737,15.4555242 4.70314673,15.3402 4.35924198,15.5354366 C4.01538519,15.7307673 3.89785723,16.1628684 4.09680603,16.5005533 C6.03973357,19.7991382 9.66876296,22 13.7989285,22 C19.9897893,22.0000471 25,17.0802826 25,11.0000235 C25,4.92028246 19.9903168,0 13.7989285,0" id="Fill-4"></path>
                </g>
            </g>
        </g>
    </g>
</svg>