<?xml version="1.0" encoding="UTF-8"?>
<svg width="201px" height="48px" viewBox="0 0 201 48" version="1.1" xmlns="http://www.w3.org/2000/svg" xmlns:xlink="http://www.w3.org/1999/xlink">
    <!-- Generator: Sketch 50.2 (55047) - http://www.bohemiancoding.com/sketch -->
    <title>logo_white</title>
    <desc>Created with Sketch.</desc>
    <defs>
        <polygon id="path-1" points="0.155980352 0.0903855114 147.926382 0.0903855114 147.926382 47.8863636 0.155980352 47.8863636"></polygon>
    </defs>
    <g id="Page-1" stroke="none" stroke-width="1" fill="none" fill-rule="evenodd">
        <g id="Lychees-Home" transform="translate(-123.000000, -29.000000)">
            <g id="Header-Full-Video" transform="translate(-12.000000, -2.000000)">
                <g id="logo_white" transform="translate(135.000000, 31.000000)">
                    <path d="M35.5968608,3 C33.0581052,3 31,4.89556729 31,7.23382586 L31,31.6877493 C31,33.5169932 32.6101692,35 34.596264,35 L51.1515059,35 C53.2769757,35 55,33.4130507 55,31.4554389 C55,29.4978271 53.2769757,27.9106996 51.1515059,27.9106996 L41.267684,27.9106996 C40.6745657,27.9106996 40.1937217,27.46783 40.1937217,26.9215529 L40.1937217,7.23382586 C40.1937217,4.89556729 38.1356165,3 35.5968608,3" id="Fill-1" fill="#FFFFFF"></path>
                    <g id="Group-5" transform="translate(53.000000, 0.000000)">
                        <mask id="mask-2" fill="white">
                            <use xlink:href="#path-1"></use>
                        </mask>
                        <g id="Clip-4"></g>
                        <path d="M135.676858,31.1213284 C132.373437,31.1213284 128.817613,30.1531743 125.552052,28.2666833 C125.425468,28.1935021 125.264848,28.2296099 125.182817,28.3514498 L122.385923,32.5096468 C122.268517,32.6842003 122.009995,32.6718425 121.909417,32.4868621 L120.305127,29.5362512 C120.235143,29.4076531 120.077964,29.356098 119.94507,29.4157629 C117.728321,30.4105635 115.885396,30.9081569 113.845329,30.9081569 C110.172481,30.9081569 107.88938,29.7482642 106.993732,27.0164244 C106.93369,26.8331818 107.068305,26.6426018 107.259711,26.6426018 L123.587324,26.6426018 C123.724616,26.6426018 123.841256,26.5427742 123.863246,26.4060663 C123.98352,25.6613175 124.194238,24.2324502 124.194238,22.803776 C124.194238,22.6218851 124.189649,22.4415388 124.184104,22.2613857 C125.51075,24.4238026 128.29923,26.0059835 133.142502,27.069138 C137.577721,28.0289893 138.95045,28.2421608 138.95045,29.5217694 C138.95045,30.4816207 138.000114,31.1213284 135.676858,31.1213284 Z M111.944657,16.8320761 C114.207106,16.8320761 115.538915,17.9597228 116.040471,20.0645988 C116.096114,20.2980448 115.858243,20.4907488 115.644274,20.3857077 C114.936016,20.0381454 113.530781,19.4967206 111.649422,19.4967206 C109.78183,19.4967206 108.289592,20.0302287 107.514982,20.3779841 C107.289732,20.4791634 107.056068,20.2520893 107.143261,20.0192226 C107.951143,17.8627915 109.583158,16.8320761 111.944657,16.8320761 Z M86.5471685,16.8320761 C88.8126775,16.8320761 90.1450599,17.9628122 90.645277,20.0730947 C90.7001556,20.3048029 90.4655354,20.4969277 90.2530961,20.3934313 C89.5410134,20.0462552 88.1262176,19.4967206 86.3010755,19.4967206 C84.4700057,19.4967206 82.9081659,20.0497308 82.1083158,20.3967139 C81.8826827,20.4946106 81.6524605,20.2708191 81.7386982,20.0387247 C82.5440935,17.8689704 84.178786,16.8320761 86.5471685,16.8320761 Z M45.1400574,28.4777308 C45.0586,28.3472019 44.8893752,28.3072322 44.7585845,28.3873646 C43.0145173,29.4565049 40.9742589,30.4816207 38.4987964,30.4816207 C34.8028119,30.4816207 32.1101297,27.9222104 32.1101297,23.870213 C32.1101297,19.8180226 34.8555871,17.2588054 38.8156388,17.2588054 C40.4409618,17.2588054 42.0660935,17.7027197 43.9262279,18.9228566 C44.051091,19.0047268 44.2176388,18.9767287 44.3057886,18.8556612 L47.2338558,14.8372615 C47.3939023,14.617718 47.738662,14.7320274 47.738662,15.0046707 L47.738662,31.6670013 C47.738662,31.9502645 47.3719127,32.0572365 47.2223829,31.8174185 L45.1400574,28.4777308 Z M137.683272,20.3511446 C133.564895,19.3914864 132.192166,19.2847075 132.192166,18.1118778 C132.192166,17.1520265 133.248052,16.6189046 134.937623,16.6189046 C136.920517,16.6189046 139.068812,17.0639774 141.143489,17.9135742 C142.582569,18.5030785 144.232176,18.067274 145.159949,16.8098708 L145.161479,16.8079399 C146.467473,15.0380753 145.783308,12.5122627 143.776895,11.6362126 C141.517696,10.6497149 138.840502,9.90091117 135.782409,9.90091117 C129.131013,9.90091117 124.554295,12.4773134 123.467432,16.5797073 C123.400316,16.8334278 123.053261,16.8602673 122.945225,16.6214147 C121.133086,12.6126696 117.350864,9.90091117 111.627814,9.90091117 C106.149137,9.90091117 100.861484,13.0347647 98.7539178,18.5088712 C98.6567809,18.761047 98.2976801,18.7454067 98.224445,18.4851211 C96.8161504,13.4753965 92.8023674,9.90091117 86.2305173,9.90091117 C80.9071065,9.90091117 75.765923,12.8607905 73.5453494,18.050282 C73.4332977,18.3121123 73.0508687,18.2537991 73.0135819,17.9711151 C72.3537008,12.9847544 68.324047,9.90091117 64.4402899,9.90091117 C61.0812253,9.90091117 58.9864708,11.2405708 57.2773959,12.7005256 C57.0949773,12.8563494 56.8173339,12.7275583 56.8173339,12.4861955 L56.819246,4.67627719 C56.8198196,2.14370644 54.7870186,0.0903855114 52.2790496,0.0903855114 C49.771463,0.0903855114 47.738662,2.14293408 47.738662,4.67511865 L47.738662,12.3767134 C47.738662,12.6084216 47.479184,12.7403022 47.2944708,12.6030151 C45.0584088,10.9407018 41.8521245,9.90091117 38.2876956,9.90091117 C33.2855251,9.90091117 28.6204656,11.8142417 25.7478506,15.322111 C25.6522434,15.4389305 25.4688687,15.3300276 25.5224088,15.1882995 C26.3708274,12.9459432 24.3254062,10.5406189 21.9482279,10.5406189 L21.7250806,10.5406189 C20.0540574,10.5406189 18.3656336,11.6149727 17.8277473,13.2126008 L13.421401,26.2981289 C13.3368842,26.5491461 12.9877266,26.5549388 12.8949876,26.3070111 L7.99358708,13.1849889 C7.39929251,11.5937327 5.89137519,10.5406189 4.20715814,10.5406189 C1.2915199,10.5406189 -0.667281137,13.5601631 0.497214987,16.2593707 L9.07337519,36.1364596 C9.10186615,36.2028826 9.10435194,36.2778016 9.07968527,36.3457693 L8.69935969,37.4019726 C8.6968739,37.4091169 8.6941969,37.4160682 8.69113747,37.4230194 C8.16357674,38.6452802 7.20215039,39.5547349 5.52328734,39.9123379 C5.51812455,39.9134965 5.51277054,39.9144619 5.50741654,39.9156205 C5.4871478,39.9194823 5.46707028,39.9235372 5.44699276,39.9277852 C2.69962326,40.499139 1.61409871,43.8870992 3.45664134,46.0228697 C3.45664134,46.0228697 3.93658966,46.5625567 4.1511323,46.8278626 C4.38039845,47.1117052 4.21595401,47.8933342 4.22417623,47.8863829 C4.47772661,47.6645223 5.07737519,47.2180978 5.34488424,47.2072848 C11.6924398,46.9539505 14.6694579,43.6799135 17.3546827,36.7730779 L22.2753959,23.7690338 C22.3864915,23.4755367 22.8174889,23.5560553 22.8172977,23.870213 C22.8172977,32.7208874 29.2589307,37.8393218 37.6012357,37.8393218 C40.6488119,37.8393218 44.2600884,36.9792982 47.308047,34.9450932 C47.4927602,34.8219016 47.738662,34.9586095 47.738662,35.1820148 L47.738662,36.9171231 C47.738662,37.07314 47.8639075,37.1996141 48.0184088,37.1996141 L56.5406465,37.1996141 C56.6951478,37.1996141 56.8203933,37.07314 56.8203933,36.9171231 L56.8203933,21.9955005 C56.8203933,19.6521581 58.2675044,17.7060023 60.5880832,17.6855347 C60.6049101,17.6853416 60.621737,17.6853416 60.6385638,17.6853416 C62.9618196,17.6853416 64.1068119,18.9647571 64.1068119,21.9507036 L64.1068119,36.9171231 C64.1068119,37.07314 64.2318661,37.1996141 64.3863674,37.1996141 L72.9087964,37.1996141 C73.0631065,37.1996141 73.1883519,37.07314 73.1883519,36.9171231 L73.1883519,30.3126668 C73.1883519,30.0129908 73.5920057,29.9189559 73.7185897,30.1900545 C76.0150755,35.1082544 81.0897163,37.8393218 87.1808532,37.8393218 C90.3771943,37.8393218 94.3787395,36.8228951 97.5148481,34.8889039 C97.6421969,34.8103162 97.6844553,34.6431001 97.6125587,34.5110265 L94.90783,29.5362512 C94.8378455,29.40746 94.6806672,29.356098 94.5475819,29.4157629 C92.3308326,30.4107566 90.4879075,30.9081569 88.4480315,30.9081569 C84.775184,30.9081569 82.4920832,29.7482642 81.5964346,27.0164244 C81.5362021,26.8331818 81.6710083,26.6426018 81.862414,26.6426018 L97.7926827,26.6426018 C97.9274889,26.6426018 98.0412615,26.7406916 98.0661194,26.87431 C99.3631271,33.8668776 105.231308,37.8393218 112.57815,37.8393218 C115.807189,37.8393218 119.857876,36.8018483 123.007752,34.8292391 C123.085768,34.7803873 123.181949,34.7769116 123.263024,34.82055 C126.484414,36.5579754 130.594378,37.8393218 134.40968,37.8393218 C143.227344,37.8393218 147.92644,34.000496 147.92644,28.9886474 C147.92644,24.5632137 145.603184,22.1638752 137.683272,20.3511446 Z" id="Fill-3" fill="#FFFFFF" mask="url(#mask-2)"></path>
                    </g>
                    <path d="M11.6523821,5.32311318 C4.86512414,6.8902733 0.258833671,12.1872668 0.00873090549,18.9853167 C-0.0691537115,21.0998618 0.374768788,23.2207854 1.31136599,25.1302544 C2.21625444,26.9753593 3.56665083,28.6041775 5.22264029,29.858988 C5.54904224,30.1062004 5.89546033,30.3557322 6.25297649,30.5588754 C6.59008013,30.7502282 6.96107251,30.898285 7.24228948,31.1702379 C8.01598298,31.9184467 7.79005814,33.3854849 7.66976307,34.3304585 C7.65648503,34.4356059 7.65886319,34.928291 7.57404228,35 C8.29957811,34.3867046 9.08377514,33.8263695 9.89849183,33.3315582 C10.2994093,33.0880183 10.7143976,32.853756 11.154951,32.6844378 C11.7213486,32.4666049 12.2150142,32.6104094 12.8030133,32.6131154 C13.0344872,32.6142751 13.2667538,32.63515 13.4994167,32.63515 C20.9547384,32.63515 27.1056413,26.7397441 26.9986243,19.4691107 C26.8408733,8.75741277 19.0674732,3.61098881 11.6523821,5.32311318" id="Fill-6" fill="#FFFFFF"></path>
                </g>
            </g>
        </g>
    </g>
</svg>