<?xml version="1.0" encoding="UTF-8"?>
<svg width="144px" height="34px" viewBox="0 0 144 34" version="1.1" xmlns="http://www.w3.org/2000/svg" xmlns:xlink="http://www.w3.org/1999/xlink">
    <!-- Generator: Sketch 50.2 (55047) - http://www.bohemiancoding.com/sketch -->
    <title>Logo_blue</title>
    <desc>Created with Sketch.</desc>
    <defs>
        <polygon id="path-1" points="0.111715658 0.0640230705 105.947274 0.0640230705 105.947274 33.9195076 0.111715658 33.9195076"></polygon>
    </defs>
    <g id="Page-1" stroke="none" stroke-width="1" fill="none" fill-rule="evenodd">
        <g id="Lychees-Home" transform="translate(-374.000000, -4147.000000)">
            <g id="Group-36" transform="translate(-193.000000, 3516.000000)">
                <g id="Logo_blue" transform="translate(567.000000, 631.000000)">
                    <path d="M25.2561098,2 C23.4578245,2 22,3.36243899 22,5.04306233 L22,22.6193198 C22,23.9340888 23.1405365,25 24.5473536,25 L36.2739833,25 C37.7795244,25 39,23.8593802 39,22.4523467 C39,21.0453132 37.7795244,19.9045653 36.2739833,19.9045653 L29.2729428,19.9045653 C28.8528173,19.9045653 28.5122195,19.5862528 28.5122195,19.1936161 L28.5122195,5.04306233 C28.5122195,3.36243899 27.054395,2 25.2561098,2" id="Fill-1" fill="#042DE0"></path>
                    <g id="Group-5" transform="translate(38.000000, 0.000000)">
                        <mask id="mask-2" fill="white">
                            <use xlink:href="#path-1"></use>
                        </mask>
                        <g id="Clip-4"></g>
                        <path d="M97.1739661,22.0442743 C94.8080023,22.0442743 92.2612633,21.3584984 89.9224158,20.022234 C89.8317543,19.9703973 89.7167155,19.9959737 89.6579636,20.082277 L87.6547827,23.0276665 C87.5706948,23.1513085 87.3855372,23.1425551 87.313501,23.0115274 L86.1644829,20.9215112 C86.1143589,20.830421 86.0017853,20.7939028 85.9066044,20.8361654 C84.3189326,21.5408158 82.9989997,21.8932778 81.5378705,21.8932778 C78.9073176,21.8932778 77.2721238,21.0716871 76.6306457,19.1366339 C76.5876432,19.0068371 76.6840566,18.8718429 76.8211444,18.8718429 L88.5152452,18.8718429 C88.613576,18.8718429 88.697116,18.8011317 88.7128654,18.704297 C88.7990075,18.1767666 88.9499274,17.1646522 88.9499274,16.1526747 C88.9499274,16.0238352 88.9466406,15.89609 88.942669,15.7684815 C89.8928344,17.3001935 91.8899894,18.420905 95.3588189,19.1739727 C98.5353951,19.8538674 99.5185656,20.0048639 99.5185656,20.9112533 C99.5185656,21.591148 98.8379196,22.0442743 97.1739661,22.0442743 Z M80.1765786,11.9227206 C81.7969817,11.9227206 82.7508447,12.7214703 83.1100669,14.2124241 C83.1499196,14.3777817 82.9795527,14.5142804 82.8263047,14.4398763 C82.3190385,14.1936863 81.3125863,13.8101771 79.9651264,13.8101771 C78.6275269,13.8101771 77.558762,14.1880787 77.0039739,14.4344054 C76.8426457,14.5060741 76.6752917,14.3452299 76.7377413,14.1802827 C77.3163589,12.6528106 78.4852349,11.9227206 80.1765786,11.9227206 Z M61.9864855,11.9227206 C63.6090798,11.9227206 64.5633537,12.7236586 64.9216173,14.2184421 C64.9609222,14.3825688 64.7928835,14.5186571 64.640731,14.4453472 C64.1307258,14.1994308 63.1174261,13.8101771 61.8102297,13.8101771 C60.4987879,13.8101771 59.3801729,14.2018927 58.8073072,14.4476723 C58.6457052,14.5170158 58.4808163,14.3584968 58.5425811,14.1940966 C59.1194183,12.6571873 60.2902116,11.9227206 61.9864855,11.9227206 Z M32.3300411,20.171726 C32.2717,20.079268 32.1504984,20.0509561 32.056824,20.1077166 C30.8076948,20.8650243 29.3464287,21.591148 27.5734623,21.591148 C24.9263382,21.591148 22.9977956,19.7782324 22.9977956,16.9080676 C22.9977956,14.037766 24.9641367,12.2249872 27.8003899,12.2249872 C28.9644726,12.2249872 30.1284183,12.5394265 31.4606767,13.4036901 C31.5501057,13.4616815 31.6693899,13.4418495 31.7325243,13.3560933 L33.8296535,10.5097269 C33.9442814,10.3542169 34.1912039,10.4351861 34.1912039,10.6283084 L34.1912039,22.4307926 C34.1912039,22.6314374 33.928532,22.7072092 33.8214364,22.5373381 L32.3300411,20.171726 Z M98.610992,14.4153941 C95.6613434,13.7356362 94.6781729,13.6600012 94.6781729,12.8292468 C94.6781729,12.1493521 95.4344158,11.7717241 96.644514,11.7717241 C98.0646948,11.7717241 99.6033382,12.086984 101.089256,12.6887817 C102.119948,13.1063473 103.301424,12.7976524 103.965909,11.9069918 L103.967005,11.9056241 C104.90238,10.65197 104.412369,8.86285275 102.975343,8.24231725 C101.357268,7.54354804 99.4398189,7.01314541 97.249563,7.01314541 C92.4857258,7.01314541 89.2078059,8.83809698 88.429377,11.7439593 C88.3813072,11.923678 88.1327413,11.9426893 88.0553641,11.7735021 C86.7574804,8.9339743 84.0485915,7.01314541 79.9496509,7.01314541 C76.0257336,7.01314541 72.2386302,9.23295835 70.7291574,13.1104504 C70.6595863,13.2890749 70.4023925,13.2779964 70.3499403,13.0936275 C69.3412969,9.54507253 66.4665605,7.01314541 61.7596948,7.01314541 C57.9469817,7.01314541 54.2647827,9.10972659 52.6743718,12.7856165 C52.5941186,12.9710796 52.3202168,12.9297744 52.2935114,12.7295398 C51.8208938,9.19753435 48.9347904,7.01314541 46.1531806,7.01314541 C43.7473641,7.01314541 42.2470669,7.96207099 41.0229997,8.99620566 C40.8923486,9.10658083 40.6934959,9.01535377 40.6934959,8.84438851 L40.6948654,3.31236301 C40.6952762,1.51845873 39.2393512,0.0640230705 37.4431031,0.0640230705 C35.6471289,0.0640230705 34.1912039,1.51791164 34.1912039,3.31154238 L34.1912039,8.76683866 C34.1912039,8.93096531 34.0053615,9.02438073 33.8730669,8.92713569 C32.271563,7.74966375 29.9751703,7.01314541 27.4222685,7.01314541 C23.8396328,7.01314541 20.4984416,8.36842122 18.4410282,10.8531619 C18.3725527,10.9359091 18.2412168,10.8587696 18.279563,10.7583788 C18.8872142,9.17004313 17.4222504,7.46627174 15.7196767,7.46627174 L15.559855,7.46627174 C14.3630411,7.46627174 13.1537646,8.2272723 12.7685217,9.35892555 L9.61262506,18.6278413 C9.55209276,18.8056452 9.30202041,18.8097484 9.23559922,18.6341328 L5.72513669,9.33936713 C5.29949328,8.21222736 4.21949845,7.46627174 3.01323488,7.46627174 C0.925007494,7.46627174 -0.477917571,9.60511553 0.356113437,11.5170542 L6.49849845,25.5966589 C6.51890413,25.6437085 6.5206845,25.6967761 6.50301783,25.7449199 L6.23062248,26.4930639 C6.22884212,26.4981245 6.22692481,26.5030483 6.22473359,26.5079721 C5.84688605,27.3737402 5.1582969,28.0179373 3.95586796,28.2712394 C3.95217028,28.27206 3.94833566,28.2727439 3.94450103,28.2735645 C3.92998424,28.2763 3.91560439,28.2791722 3.90122455,28.2821812 C1.93351395,28.6868901 1.15604367,31.0866953 2.47570258,32.5995327 C2.47570258,32.5995327 2.81944935,32.981811 2.97310827,33.169736 C3.1373124,33.3707912 3.01953463,33.9244451 3.02542351,33.9195213 C3.20702041,33.76237 3.63649845,33.4461526 3.82809276,33.4384934 C8.37431499,33.2590483 10.5065036,30.9399387 12.4297052,26.0475968 L15.9539997,16.8363989 C16.0335682,16.6285052 16.3422556,16.6855392 16.3421186,16.9080676 C16.3421186,23.1772953 20.9557207,26.802853 26.9306147,26.802853 C29.1133382,26.802853 31.699793,26.1936695 33.8827904,24.7527743 C34.015085,24.6655137 34.1912039,24.7623484 34.1912039,24.9205938 L34.1912039,26.1496289 C34.1912039,26.2601408 34.2809067,26.3497266 34.391563,26.3497266 L40.4953279,26.3497266 C40.6059842,26.3497266 40.6956871,26.2601408 40.6956871,26.1496289 L40.6956871,15.5801462 C40.6956871,13.9202787 41.7321315,12.5417516 43.3941677,12.5272537 C43.4062194,12.527117 43.4182711,12.527117 43.4303227,12.527117 C45.0942762,12.527117 45.9143382,13.4333696 45.9143382,15.5484151 L45.9143382,26.1496289 C45.9143382,26.2601408 46.0039041,26.3497266 46.1145605,26.3497266 L52.2184623,26.3497266 C52.3289817,26.3497266 52.4186845,26.2601408 52.4186845,26.1496289 L52.4186845,21.4714723 C52.4186845,21.2592018 52.7077879,21.1925938 52.7984494,21.3846219 C54.4432297,24.8683468 58.0777698,26.802853 62.4403408,26.802853 C64.7296121,26.802853 67.5955837,26.0828841 69.8417155,24.7129736 C69.9329248,24.6573073 69.963191,24.5388626 69.9116974,24.4453104 L67.9745269,20.9215112 C67.9244028,20.8302842 67.8118292,20.7939028 67.7165114,20.8361654 C66.1288395,21.5409526 64.8089067,21.8932778 63.3479145,21.8932778 C60.7173615,21.8932778 59.0821677,21.0716871 58.4406897,19.1366339 C58.3975501,19.0068371 58.4941005,18.8718429 58.6311884,18.8718429 L70.0407052,18.8718429 C70.1372556,18.8718429 70.2187413,18.9413232 70.236545,19.0359696 C71.1654829,23.9890383 75.3683693,26.802853 80.6302969,26.802853 C82.9429868,26.802853 85.8441548,26.0679759 88.100147,24.670711 C88.156023,24.6361076 88.2249093,24.6336457 88.2829765,24.6645563 C90.5901884,25.8952326 93.5338111,26.802853 96.2663925,26.802853 C102.581747,26.802853 105.947315,24.0836847 105.947315,20.5336253 C105.947315,17.398943 104.283361,15.6994116 98.610992,14.4153941 Z" id="Fill-3" fill="#042DE0" mask="url(#mask-2)"></path>
                    </g>
                    <path d="M8.19982441,4.22617923 C3.42360587,5.32319131 0.182142213,9.03108676 0.00614397053,13.7897217 C-0.0486637229,15.2699033 0.263726184,16.7545498 0.922813103,18.0911781 C1.55958646,19.3827515 2.5098654,20.5229243 3.67519132,21.4012916 C3.90488157,21.5743403 4.14865727,21.7490125 4.40024271,21.8912128 C4.6374638,22.0251597 4.89853251,22.1287995 5.09642593,22.3191666 C5.64087691,22.8429127 5.48189276,23.8698394 5.39724068,24.5313209 C5.38789687,24.6049241 5.38957039,24.9498037 5.3298816,25 C5.84044386,24.5706932 6.39228621,24.1784586 6.96560536,23.8320907 C7.2477325,23.6616128 7.53976128,23.4976292 7.84978037,23.3791065 C8.24835642,23.2266234 8.59575073,23.3272866 9.00952789,23.3291808 C9.17241692,23.3299926 9.33586378,23.344605 9.49958956,23.344605 C14.745927,23.344605 19.0743402,19.2178208 18.9990319,14.1283775 C18.8880219,6.63018894 13.4178515,3.02769217 8.19982441,4.22617923" id="Fill-6" fill="#042DE0"></path>
                </g>
            </g>
        </g>
    </g>
</svg>